<svg xmlns="http://www.w3.org/2000/svg" viewBox="0 0 1600 1200" width="1600" height="1200"><g transform="translate(301.0 110.0) rotate(0.0 588.5 418.0) scale(1.4893078577755283 1.4896650035637917)"><svg width="790.3" height="561.2" viewBox="0 0 790.3 561.2"><path d="M0 39.1h790.3v522H0z" fill="#eee"/><path d="M790.1 49.7 0 49.9.1.1 790.3 0z" fill="#a1c3fc"/><path d="M754.5 12.7h21.4v22.5h-21.4z" fill="#eee"/></svg></g><g transform="translate(336.0 752.0) rotate(0.0 528.5 63.0) scale(1.5906696764484576 1.5849056603773586)"><svg width="664.5" height="79.5" viewBox="0 0 664.5 79.5"><path d="M1.5 1.5H663V78H1.5z" fill="#fff"/><g fill="#a1c3fc"><path d="M663 9c-.8 0-1.5-.7-1.5-1.5V3H657c-.8 0-1.5-.7-1.5-1.5S656.2 0 657 0h6c.8 0 1.5.7 1.5 1.5v6c0 .8-.6 1.5-1.5 1.5zm-17.8-6h-11.8c-.8 0-1.5-.7-1.5-1.5s.7-1.5 1.5-1.5h11.8c.8 0 1.5.7 1.5 1.5s-.6 1.5-1.5 1.5zm-23.6 0h-11.8c-.8 0-1.5-.7-1.5-1.5S609 0 609.8 0h11.8c.8 0 1.5.7 1.5 1.5s-.7 1.5-1.5 1.5zM598 3h-11.8c-.8 0-1.5-.7-1.5-1.5s.7-1.5 1.5-1.5H598c.8 0 1.5.7 1.5 1.5S598.8 3 598 3zm-23.6 0h-11.8c-.8 0-1.5-.7-1.5-1.5s.7-1.5 1.5-1.5h11.8c.8 0 1.5.7 1.5 1.5s-.7 1.5-1.5 1.5zm-23.6 0H539c-.8 0-1.5-.7-1.5-1.5S538.2 0 539 0h11.8c.8 0 1.5.7 1.5 1.5s-.7 1.5-1.5 1.5zm-23.7 0h-11.8c-.8 0-1.5-.7-1.5-1.5s.7-1.5 1.5-1.5h11.8c.8 0 1.5.7 1.5 1.5S528 3 527.1 3zm-23.6 0h-11.8c-.8 0-1.5-.7-1.5-1.5s.7-1.5 1.5-1.5h11.8c.8 0 1.5.7 1.5 1.5s-.7 1.5-1.5 1.5zm-23.6 0h-11.8c-.8 0-1.5-.7-1.5-1.5s.7-1.5 1.5-1.5h11.8c.8 0 1.5.7 1.5 1.5s-.7 1.5-1.5 1.5zm-23.6 0h-11.8c-.8 0-1.5-.7-1.5-1.5s.7-1.5 1.5-1.5h11.8c.8 0 1.5.7 1.5 1.5s-.7 1.5-1.5 1.5zm-23.6 0h-11.8c-.8 0-1.5-.7-1.5-1.5S420 0 420.9 0h11.8c.8 0 1.5.7 1.5 1.5s-.7 1.5-1.5 1.5zM409 3h-11.8c-.8 0-1.5-.7-1.5-1.5s.7-1.5 1.5-1.5H409c.8 0 1.5.7 1.5 1.5S409.9 3 409 3zm-23.6 0h-11.8c-.8 0-1.5-.7-1.5-1.5s.7-1.5 1.5-1.5h11.8c.8 0 1.5.7 1.5 1.5s-.7 1.5-1.5 1.5zm-23.6 0H350c-.8 0-1.5-.7-1.5-1.5S349.2 0 350 0h11.8c.8 0 1.5.7 1.5 1.5s-.7 1.5-1.5 1.5zm-23.6 0h-11.8c-.8 0-1.5-.7-1.5-1.5s.7-1.5 1.5-1.5h11.8c.8 0 1.5.7 1.5 1.5S339 3 338.2 3zm-23.6 0h-11.8c-.8 0-1.5-.7-1.5-1.5S302 0 302.8 0h11.8c.8 0 1.5.7 1.5 1.5s-.7 1.5-1.5 1.5zm-23.7 0h-11.8c-.8 0-1.5-.7-1.5-1.5s.7-1.5 1.5-1.5h11.8c.8 0 1.5.7 1.5 1.5s-.6 1.5-1.5 1.5zm-23.6 0h-11.8c-.8 0-1.5-.7-1.5-1.5s.7-1.5 1.5-1.5h11.8c.8 0 1.5.7 1.5 1.5s-.7 1.5-1.5 1.5zm-23.6 0h-11.8c-.8 0-1.5-.7-1.5-1.5s.7-1.5 1.5-1.5h11.8c.8 0 1.5.7 1.5 1.5s-.7 1.5-1.5 1.5zm-23.6 0h-11.8c-.8 0-1.5-.7-1.5-1.5s.7-1.5 1.5-1.5h11.8c.8 0 1.5.7 1.5 1.5s-.7 1.5-1.5 1.5zm-23.6 0h-11.8c-.8 0-1.5-.7-1.5-1.5s.7-1.5 1.5-1.5h11.8c.8 0 1.5.7 1.5 1.5s-.7 1.5-1.5 1.5zm-23.7 0H161c-.8 0-1.5-.7-1.5-1.5S160.2 0 161 0h11.8c.8 0 1.5.7 1.5 1.5s-.6 1.5-1.5 1.5zm-23.6 0h-11.8c-.8 0-1.5-.7-1.5-1.5s.7-1.5 1.5-1.5h11.8c.8 0 1.5.7 1.5 1.5S150 3 149.2 3zm-23.6 0h-11.8c-.8 0-1.5-.7-1.5-1.5S113 0 113.8 0h11.8c.8 0 1.5.7 1.5 1.5s-.7 1.5-1.5 1.5zM102 3H90.2c-.8 0-1.5-.7-1.5-1.5S89.3 0 90.2 0H102c.8 0 1.5.7 1.5 1.5S102.8 3 102 3zM78.4 3H66.5c-.8 0-1.5-.7-1.5-1.5S65.7 0 66.5 0h11.8c.8 0 1.5.7 1.5 1.5S79.2 3 78.4 3zM54.7 3H42.9c-.8 0-1.5-.7-1.5-1.5S42.1 0 42.9 0h11.8c.8 0 1.5.7 1.5 1.5S55.6 3 54.7 3zM31.1 3H19.3c-.8 0-1.5-.7-1.5-1.5S18.5 0 19.3 0h11.8c.8 0 1.5.7 1.5 1.5S31.9 3 31.1 3zM1.5 9C.7 9 0 8.3 0 7.5v-6C0 .7.7 0 1.5 0h6C8.3 0 9 .7 9 1.5S8.3 3 7.5 3H3v4.5C3 8.3 2.3 9 1.5 9zm0 51.6c-.8 0-1.5-.7-1.5-1.5V46.2c0-.8.7-1.5 1.5-1.5s1.5.7 1.5 1.5v12.9c0 .8-.7 1.5-1.5 1.5zm0-25.8c-.8 0-1.5-.7-1.5-1.5V20.4c0-.8.7-1.5 1.5-1.5s1.5.7 1.5 1.5v12.9c0 .8-.7 1.5-1.5 1.5zm6 44.7h-6C.7 79.5 0 78.8 0 78v-6c0-.8.7-1.5 1.5-1.5S3 71.2 3 72v4.5h4.5c.8 0 1.5.7 1.5 1.5s-.7 1.5-1.5 1.5zm637.7 0h-11.8c-.8 0-1.5-.7-1.5-1.5s.7-1.5 1.5-1.5h11.8c.8 0 1.5.7 1.5 1.5s-.6 1.5-1.5 1.5zm-23.6 0h-11.8c-.8 0-1.5-.7-1.5-1.5s.7-1.5 1.5-1.5h11.8c.8 0 1.5.7 1.5 1.5s-.7 1.5-1.5 1.5zm-23.6 0h-11.8c-.8 0-1.5-.7-1.5-1.5s.7-1.5 1.5-1.5H598c.8 0 1.5.7 1.5 1.5s-.7 1.5-1.5 1.5zm-23.6 0h-11.8c-.8 0-1.5-.7-1.5-1.5s.7-1.5 1.5-1.5h11.8c.8 0 1.5.7 1.5 1.5s-.7 1.5-1.5 1.5zm-23.6 0H539c-.8 0-1.5-.7-1.5-1.5s.7-1.5 1.5-1.5h11.8c.8 0 1.5.7 1.5 1.5s-.7 1.5-1.5 1.5zm-23.7 0h-11.8c-.8 0-1.5-.7-1.5-1.5s.7-1.5 1.5-1.5h11.8c.8 0 1.5.7 1.5 1.5s-.6 1.5-1.5 1.5zm-23.6 0h-11.8c-.8 0-1.5-.7-1.5-1.5s.7-1.5 1.5-1.5h11.8c.8 0 1.5.7 1.5 1.5s-.7 1.5-1.5 1.5zm-23.6 0h-11.8c-.8 0-1.5-.7-1.5-1.5s.7-1.5 1.5-1.5h11.8c.8 0 1.5.7 1.5 1.5s-.7 1.5-1.5 1.5zm-23.6 0h-11.8c-.8 0-1.5-.7-1.5-1.5s.7-1.5 1.5-1.5h11.8c.8 0 1.5.7 1.5 1.5s-.7 1.5-1.5 1.5zm-23.6 0h-11.8c-.8 0-1.5-.7-1.5-1.5s.7-1.5 1.5-1.5h11.8c.8 0 1.5.7 1.5 1.5s-.7 1.5-1.5 1.5zm-23.7 0h-11.8c-.8 0-1.5-.7-1.5-1.5s.7-1.5 1.5-1.5H409c.8 0 1.5.7 1.5 1.5s-.6 1.5-1.5 1.5zm-23.6 0h-11.8c-.8 0-1.5-.7-1.5-1.5s.7-1.5 1.5-1.5h11.8c.8 0 1.5.7 1.5 1.5s-.7 1.5-1.5 1.5zm-23.6 0H350c-.8 0-1.5-.7-1.5-1.5s.7-1.5 1.5-1.5h11.8c.8 0 1.5.7 1.5 1.5s-.7 1.5-1.5 1.5zm-23.6 0h-11.8c-.8 0-1.5-.7-1.5-1.5s.7-1.5 1.5-1.5h11.8c.8 0 1.5.7 1.5 1.5s-.7 1.5-1.5 1.5zm-23.6 0h-11.8c-.8 0-1.5-.7-1.5-1.5s.7-1.5 1.5-1.5h11.8c.8 0 1.5.7 1.5 1.5s-.7 1.5-1.5 1.5zm-23.7 0h-11.8c-.8 0-1.5-.7-1.5-1.5s.7-1.5 1.5-1.5h11.8c.8 0 1.5.7 1.5 1.5s-.6 1.5-1.5 1.5zm-23.6 0h-11.8c-.8 0-1.5-.7-1.5-1.5s.7-1.5 1.5-1.5h11.8c.8 0 1.5.7 1.5 1.5s-.7 1.5-1.5 1.5zm-23.6 0h-11.8c-.8 0-1.5-.7-1.5-1.5s.7-1.5 1.5-1.5h11.8c.8 0 1.5.7 1.5 1.5s-.7 1.5-1.5 1.5zm-23.6 0h-11.8c-.8 0-1.5-.7-1.5-1.5s.7-1.5 1.5-1.5h11.8c.8 0 1.5.7 1.5 1.5s-.7 1.5-1.5 1.5zm-23.6 0h-11.8c-.8 0-1.5-.7-1.5-1.5s.7-1.5 1.5-1.5h11.8c.8 0 1.5.7 1.5 1.5s-.7 1.5-1.5 1.5zm-23.7 0H161c-.8 0-1.5-.7-1.5-1.5s.7-1.5 1.5-1.5h11.8c.8 0 1.5.7 1.5 1.5s-.6 1.5-1.5 1.5zm-23.6 0h-11.8c-.8 0-1.5-.7-1.5-1.5s.7-1.5 1.5-1.5h11.8c.8 0 1.5.7 1.5 1.5s-.7 1.5-1.5 1.5zm-23.6 0h-11.8c-.8 0-1.5-.7-1.5-1.5s.7-1.5 1.5-1.5h11.8c.8 0 1.5.7 1.5 1.5s-.7 1.5-1.5 1.5zm-23.6 0H90.2c-.8 0-1.5-.7-1.5-1.5s.7-1.5 1.5-1.5H102c.8 0 1.5.7 1.5 1.5s-.7 1.5-1.5 1.5zm-23.6 0H66.5c-.8 0-1.5-.7-1.5-1.5s.7-1.5 1.5-1.5h11.8c.8 0 1.5.7 1.5 1.5s-.6 1.5-1.4 1.5zm-23.7 0H42.9c-.8 0-1.5-.7-1.5-1.5s.7-1.5 1.5-1.5h11.8c.8 0 1.5.7 1.5 1.5s-.6 1.5-1.5 1.5zm-23.6 0H19.3c-.8 0-1.5-.7-1.5-1.5s.7-1.5 1.5-1.5h11.8c.8 0 1.5.7 1.5 1.5s-.7 1.5-1.5 1.5zm631.9 0h-6c-.8 0-1.5-.7-1.5-1.5s.7-1.5 1.5-1.5h4.5V72c0-.8.7-1.5 1.5-1.5s1.5.7 1.5 1.5v6c0 .8-.6 1.5-1.5 1.5zm0-18.9c-.8 0-1.5-.7-1.5-1.5V46.2c0-.8.7-1.5 1.5-1.5s1.5.7 1.5 1.5v12.9c0 .8-.6 1.5-1.5 1.5zm0-25.8c-.8 0-1.5-.7-1.5-1.5V20.4c0-.8.7-1.5 1.5-1.5s1.5.7 1.5 1.5v12.9c0 .8-.6 1.5-1.5 1.5z"/></g></svg></g><g transform="translate(721.0 254.0) rotate(0.0 337.5 202.5) scale(1.3952046300124017 1.404786680541103)"><svg width="483.8" height="288.3" viewBox="0 0 483.8 288.3"><g fill="#FFF"><path d="M0 207.8h483.8V219H0zm0 69.3h354v11.2H0zm1-138.6h197.5v11.2H1zM0 0h197.5v11.2H0zm0 69.3h197.5v11.2H0z"/></g></svg></g><g transform="translate(1059.0 219.0) rotate(0.0 184.0 128.0) scale(1.3504587155963304 1.3410162388685176)"><svg width="272.5" height="190.9" viewBox="0 0 272.5 190.9"><path d="M1.5 25.6h246.3v163.8H1.5z" fill="#fff"/><g fill="#a1c3fc"><path d="M247.8 33.1c-.8 0-1.5-.7-1.5-1.5v-4.5h-4.5c-.8 0-1.5-.7-1.5-1.5s.7-1.5 1.5-1.5h6c.8 0 1.5.7 1.5 1.5v6c0 .8-.7 1.5-1.5 1.5zm-18.3-6h-12.3c-.8 0-1.5-.7-1.5-1.5s.7-1.5 1.5-1.5h12.3c.8 0 1.5.7 1.5 1.5s-.7 1.5-1.5 1.5zm-24.7 0h-12.3c-.8 0-1.5-.7-1.5-1.5s.7-1.5 1.5-1.5h12.3c.8 0 1.5.7 1.5 1.5s-.7 1.5-1.5 1.5zm-24.7 0h-12.3c-.8 0-1.5-.7-1.5-1.5s.7-1.5 1.5-1.5h12.3c.8 0 1.5.7 1.5 1.5s-.6 1.5-1.5 1.5zm-24.6 0h-12.3c-.8 0-1.5-.7-1.5-1.5s.7-1.5 1.5-1.5h12.3c.8 0 1.5.7 1.5 1.5s-.7 1.5-1.5 1.5zm-24.7 0h-12.3c-.8 0-1.5-.7-1.5-1.5s.7-1.5 1.5-1.5h12.3c.8 0 1.5.7 1.5 1.5s-.7 1.5-1.5 1.5zm-24.6 0H93.8c-.8 0-1.5-.7-1.5-1.5s.7-1.5 1.5-1.5h12.3c.8 0 1.5.7 1.5 1.5s-.6 1.5-1.4 1.5zm-24.7 0H69.2c-.8 0-1.5-.7-1.5-1.5s.7-1.5 1.5-1.5h12.3c.8 0 1.5.7 1.5 1.5s-.7 1.5-1.5 1.5zm-24.7 0H44.5c-.8 0-1.5-.7-1.5-1.5s.7-1.5 1.5-1.5h12.3c.8 0 1.5.7 1.5 1.5s-.6 1.5-1.5 1.5zm-24.6 0H19.8c-.8 0-1.5-.7-1.5-1.5s.7-1.5 1.5-1.5h12.3c.8 0 1.5.7 1.5 1.5s-.6 1.5-1.4 1.5zm-30.7 6c-.8 0-1.5-.7-1.5-1.5v-6c0-.8.7-1.5 1.5-1.5h6c.8 0 1.5.7 1.5 1.5s-.7 1.5-1.5 1.5H3v4.5c0 .8-.7 1.5-1.5 1.5zm0 140.1c-.8 0-1.5-.7-1.5-1.5V160c0-.8.7-1.5 1.5-1.5s1.5.7 1.5 1.5v11.7c0 .9-.7 1.5-1.5 1.5zm0-23.3c-.8 0-1.5-.7-1.5-1.5v-11.7c0-.8.7-1.5 1.5-1.5s1.5.7 1.5 1.5v11.7c0 .8-.7 1.5-1.5 1.5zm0-23.4c-.8 0-1.5-.7-1.5-1.5v-11.7c0-.8.7-1.5 1.5-1.5s1.5.7 1.5 1.5V125c0 .9-.7 1.5-1.5 1.5zm0-23.3c-.8 0-1.5-.7-1.5-1.5V90c0-.8.7-1.5 1.5-1.5S3 89.2 3 90v11.7c0 .8-.7 1.5-1.5 1.5zm0-23.4c-.8 0-1.5-.7-1.5-1.5V66.6c0-.8.7-1.5 1.5-1.5s1.5.7 1.5 1.5v11.7c0 .8-.7 1.5-1.5 1.5zm0-23.4c-.8 0-1.5-.7-1.5-1.5V43.3c0-.8.7-1.5 1.5-1.5s1.5.6 1.5 1.5V55c0 .8-.7 1.4-1.5 1.4zm6 134.5h-6c-.8 0-1.5-.7-1.5-1.5v-6c0-.8.7-1.5 1.5-1.5s1.5.7 1.5 1.5v4.5h4.5c.8 0 1.5.7 1.5 1.5s-.7 1.5-1.5 1.5zm222 0h-12.3c-.8 0-1.5-.7-1.5-1.5s.7-1.5 1.5-1.5h12.3c.8 0 1.5.7 1.5 1.5s-.7 1.5-1.5 1.5zm-24.7 0h-12.3c-.8 0-1.5-.7-1.5-1.5s.7-1.5 1.5-1.5h12.3c.8 0 1.5.7 1.5 1.5s-.7 1.5-1.5 1.5zm-24.7 0h-12.3c-.8 0-1.5-.7-1.5-1.5s.7-1.5 1.5-1.5h12.3c.8 0 1.5.7 1.5 1.5s-.6 1.5-1.5 1.5zm-24.6 0h-12.3c-.8 0-1.5-.7-1.5-1.5s.7-1.5 1.5-1.5h12.3c.8 0 1.5.7 1.5 1.5s-.7 1.5-1.5 1.5zm-24.7 0h-12.3c-.8 0-1.5-.7-1.5-1.5s.7-1.5 1.5-1.5h12.3c.8 0 1.5.7 1.5 1.5s-.7 1.5-1.5 1.5zm-24.6 0H93.8c-.8 0-1.5-.7-1.5-1.5s.7-1.5 1.5-1.5h12.3c.8 0 1.5.7 1.5 1.5s-.6 1.5-1.4 1.5zm-24.7 0H69.2c-.8 0-1.5-.7-1.5-1.5s.7-1.5 1.5-1.5h12.3c.8 0 1.5.7 1.5 1.5s-.7 1.5-1.5 1.5zm-24.7 0H44.5c-.8 0-1.5-.7-1.5-1.5s.7-1.5 1.5-1.5h12.3c.8 0 1.5.7 1.5 1.5s-.6 1.5-1.5 1.5zm-24.6 0H19.8c-.8 0-1.5-.7-1.5-1.5s.7-1.5 1.5-1.5h12.3c.8 0 1.5.7 1.5 1.5s-.6 1.5-1.4 1.5zm215.6 0h-6c-.8 0-1.5-.7-1.5-1.5s.7-1.5 1.5-1.5h4.5v-4.5c0-.8.7-1.5 1.5-1.5s1.5.7 1.5 1.5v6c0 .9-.7 1.5-1.5 1.5zm0-17.7c-.8 0-1.5-.7-1.5-1.5V160c0-.8.7-1.5 1.5-1.5s1.5.7 1.5 1.5v11.7c0 .9-.7 1.5-1.5 1.5zm0-23.3c-.8 0-1.5-.7-1.5-1.5v-11.7c0-.8.7-1.5 1.5-1.5s1.5.7 1.5 1.5v11.7c0 .8-.7 1.5-1.5 1.5zm0-23.4c-.8 0-1.5-.7-1.5-1.5v-11.7c0-.8.7-1.5 1.5-1.5s1.5.7 1.5 1.5V125c0 .9-.7 1.5-1.5 1.5zm0-23.3c-.8 0-1.5-.7-1.5-1.5V90c0-.8.7-1.5 1.5-1.5s1.5.7 1.5 1.5v11.7c0 .8-.7 1.5-1.5 1.5zm0-23.4c-.8 0-1.5-.7-1.5-1.5V66.6c0-.8.7-1.5 1.5-1.5s1.5.7 1.5 1.5v11.7c0 .8-.7 1.5-1.5 1.5zm0-23.4c-.8 0-1.5-.7-1.5-1.5V43.3c0-.8.7-1.5 1.5-1.5s1.5.7 1.5 1.5V55c0 .8-.7 1.4-1.5 1.4z"/></g><circle cx="250.3" cy="22.3" fill="#fcc817" r="22.3"/><path d="M257.4 20.8h-6.3v-6.3c0-.8-.7-1.5-1.5-1.5s-1.5.7-1.5 1.5v6.3h-6.3c-.8 0-1.5.7-1.5 1.5s.7 1.5 1.5 1.5h6.3V30c0 .8.7 1.5 1.5 1.5s1.5-.7 1.5-1.5v-6.3h6.3c.8 0 1.5-.7 1.5-1.5s-.7-1.4-1.5-1.4z" fill="#23286b"/><circle cx="60.3" cy="66.8" fill="#a1c3fc" r="16.6"/><path d="m87.6 167.3 73.2-84.7 65 84.2z" fill="#78a9ef"/><path d="m21.9 167.5 63.6-59.7 56.6 59.3z" fill="#a1c3fc"/></svg></g><g transform="translate(62.0 208.0) rotate(0.0 380.0 438.5) scale(1.5328761597418314 1.5380568221676603)"><svg width="495.8" height="570.2" viewBox="0 0 495.8 570.2"><linearGradient id="b" gradientUnits="userSpaceOnUse" x1="372.286" x2="204.095" y1="543.373" y2="552.783"><stop offset=".129" stop-color="#428dfc"/><stop offset=".999" stop-color="#1d72d8"/></linearGradient><linearGradient id="c" gradientUnits="userSpaceOnUse" x1="380.054" x2="208.441" y1="455.315" y2="366.377"><stop offset="0" stop-color="#23286b"/><stop offset="1" stop-color="#151a4f"/></linearGradient><linearGradient id="d" gradientUnits="userSpaceOnUse" x1="224.422" x2="224.422" y1="129.775" y2="71.813"><stop offset="0" stop-color="#ffbeb6"/><stop offset="1" stop-color="#f2a19c"/></linearGradient><linearGradient id="e" gradientUnits="userSpaceOnUse" x1="243.802" x2="189.556" y1="121.177" y2="251.838"><stop offset="0" stop-color="#a1c3fc"/><stop offset="1" stop-color="#81aef2"/></linearGradient><linearGradient id="a"><stop offset="0" stop-color="#f1b505"/><stop offset="1" stop-color="#d89c05"/></linearGradient><linearGradient xmlns:xlink="http://www.w3.org/1999/xlink" id="f" gradientTransform="matrix(.9171 -.3986 .3986 .9171 -244.1308 180.0894)" gradientUnits="userSpaceOnUse" x1="490.394" x2="517.406" xlink:href="#a" y1="60.879" y2="129.871"/><linearGradient xmlns:xlink="http://www.w3.org/1999/xlink" id="g" gradientUnits="userSpaceOnUse" x1="197.277" x2="305.717" xlink:href="#a" y1="42.649" y2="42.649"/><path d="M255.7 59c-.3 0-.5-.2-.5-.5s.2-.5.5-.5c.2 0 16.8-1.8 21.8-16.5.1-.3.4-.4.6-.3.3.1.4.4.3.6-5.2 15.4-22.5 17.2-22.7 17.2z" fill="#23286b"/><g fill="#428dfc"><path d="M495.827 107.782 101.417 478.64 88.95 465.382 483.36 94.523zm-88.948-94.58L12.469 384.06.002 370.802 394.412-.057z"/><path d="M132.838 449.106 33.033 342.964l15.08-14.18 99.805 106.143zm59.689-56.203L92.722 286.761l15.08-14.18 99.805 106.143zm115.26-109.602L207.982 177.16l15.08-14.18 99.805 106.143zm-55.43 53.403-99.804-106.142 15.08-14.18 99.804 106.143zM365.641 229.51l-99.804-106.142 15.08-14.18 99.804 106.143zm59.758-56.13L325.594 67.237l15.08-14.18L440.48 159.2z"/></g><path d="m223.3 528.1-15.1 42.2h106.7s-5.5-10.6-23.7-18.4-35.3-23.8-35.3-23.8z" fill="url(#b)"/><path d="m142.4 528-15.1 42.2H234s-5.5-10.6-23.7-18.4C192 544 175 528 175 528z" fill="#428dfc"/><path d="M267.3 365.4c-1.8-23.6-8-45.1-11.8-66.6-.5-3-1.2-5.9-1.6-8.9-1.9-14.3-7.9-60.6-9.2-66.8l-27.8 3.2-13.4 2.1s-9.5 1.8-16.5 5.5c-2.7 13.5-3.4 30.2 1.1 49.7 12.9 56.5 13.9 48.5 11.9 88.2-2 39.6 4.5 26.2 6.4 67.8 2 41.6-29.2 38.8.8 88.2l58 .2c0 .1 4.8-126.9 2.1-162.6z" fill="url(#c)"/><path d="M245.5 307.2s.7-77.5 3.4-87.2l-80.1 4.7-4.6 8.9c-.9-.2.8.2 0 0-6.7 25-5.9 51.5 2.5 76.1 20.5 61.6 8 61.3-.2 77.3-9.1 17.6-9.1 35.9-12.9 50.8-4.1 16.1-15.4 21.6-23.8 47.9-7 22.1-8.2 42.5-8.2 42.5l65.9-.2s51.9-129.1 54.6-156c2.4-24.2 1.3-33.6 3.4-64.8z" fill="#23286b"/><path d="M193.2 252c.1.1.3 0 .3-.1.1-.1 0-.3-.1-.3-.1-.1-.3 0-.3.1-.1.1 0 .3.1.3zm-1.2-6.5c.1 0 .3 0 .3-.1s0-.3-.1-.3c-.1-.1-.2 0-.3.1-.1.1 0 .2.1.3zm-22.5 26.7c.1.1.3 0 .3-.1.1-.1 0-.3-.1-.3-.1-.1-.3 0-.3.1-.1.1 0 .3.1.3zM213 258c0 .1.2.2.3.1.1 0 .2-.2.1-.3 0-.1-.2-.2-.3-.1-.1 0-.2.2-.1.3zm-28.2-15.6c.1.1.2.1.3 0 .1-.1.1-.2 0-.3-.1-.1-.2-.1-.3 0-.1.1-.1.2 0 .3zm19.2 15.3c0 .1.1.2.2.2s.2-.1.2-.3c0-.1-.1-.2-.2-.2-.1.1-.2.2-.2.3zm-15.8 6.5c0 .1.1.2.2.2s.2-.1.2-.2-.1-.2-.2-.2-.2.1-.2.2zm-26.8-10.8c.2.2.4.2.6.1.2-.2.2-.5 0-.6-.2-.2-.4-.2-.6-.1-.2.1-.2.4 0 .6zm8.3-7.3c.2.2.4.2.6.1.2-.2.2-.5 0-.6-.2-.2-.4-.2-.6-.1-.1.1-.1.4 0 .6zm24.9 35.4c0 .3.2.5.4.5s.5-.1.5-.4c0-.3-.2-.5-.4-.5-.2-.1-.4.1-.5.4.1 0 .1 0 0 0zm.8-11.2c0 .3.2.5.4.5.3 0 .5-.2.5-.4 0-.3-.2-.5-.4-.5s-.5.2-.5.4zM192 258c0 .3.2.5.4.5s.5-.1.5-.4c0-.3-.2-.5-.4-.5-.2-.1-.4.1-.5.4zm5.1-7.8c0 .3.2.5.4.5.3 0 .5-.2.5-.4 0-.3-.2-.5-.4-.5-.3 0-.5.2-.5.4zm-23.5 20.3c.2.1.5 0 .6-.2.1-.2 0-.5-.2-.6-.2-.1-.5 0-.6.2-.1.2 0 .5.2.6zm3.9-11c.2.1.5 0 .6-.2.1-.2 0-.5-.2-.6-.2-.1-.5 0-.6.2-.1.2 0 .5.2.6zm6-9c.2.1.5 0 .6-.2s0-.5-.2-.6-.5 0-.6.2c-.2.2-.1.5.2.6zm5.6-7.7c.2.1.5 0 .6-.2.1-.2 0-.5-.2-.6s-.5 0-.6.2 0 .4.2.6c0-.1 0 0 0 0zm-19 34.3c.1.2.3.4.6.3.2-.1.4-.3.3-.6-.1-.2-.3-.4-.5-.3-.3.1-.5.3-.4.6zm42-14c.1.2.3.4.6.3.2-.1.4-.3.3-.6-.1-.2-.3-.4-.6-.3s-.4.3-.3.6zm-2-5.5c.1.2.3.4.5.3.2-.1.4-.3.3-.6-.1-.2-.3-.4-.6-.3-.2.1-.3.4-.2.6zm-19.2 6.7c.1.2.3.4.6.3.2-.1.4-.3.3-.6-.1-.2-.3-.4-.6-.3-.2.1-.3.4-.3.6zm-24.8-26.6c.1.2.3.4.6.3.2-.1.4-.3.3-.6-.1-.2-.3-.4-.6-.3s-.4.3-.3.6zm-2.1 27.6c.2.1.4.1.6-.1.1-.2.1-.4-.1-.6-.2-.1-.4-.1-.5.1-.2.3-.2.5 0 .6zm5.2-8.4c.2.1.4.1.6-.1.1-.2.1-.5-.1-.6s-.4 0-.6.1c-.1.2-.1.5.1.6zm5.1-8.7c0 .1.1.2.2.2.2.1.4.1.6-.1.1-.2.1-.5-.1-.6-.1-.1-.3-.1-.4 0-.1 0-.1.1-.2.2s-.2.2-.1.3zm5.4-8.2c.2.1.4.1.6-.1.1-.2.1-.5-.1-.6s-.4-.1-.6.1-.1.5.1.6zm25.2 32.1c.1.2.3.4.5.3.2 0 .3-.3.3-.5s-.3-.4-.5-.3c-.3 0-.4.3-.3.5zm-2.3-9.7c.1.2.3.4.5.3.2 0 .3-.3.3-.5s-.3-.4-.5-.3c-.2 0-.3.2-.3.5zm-1.4-10.8c0 .2.3.4.5.3.2 0 .3-.2.3-.5 0-.2-.3-.4-.5-.3-.2.1-.3.3-.3.5zm-12.7 25c.1.2.3.4.5.3s.3-.3.3-.5c-.1-.2-.3-.4-.5-.3s-.4.3-.3.5zm-4.8-9.1c0 .2.1.4.3.5.2 0 .4-.1.5-.3 0-.2-.1-.4-.3-.5-.3-.1-.5.1-.5.3zm6.8-11.9c0 .2.1.4.3.5.2 0 .4-.1.5-.3 0-.2-.1-.4-.3-.5-.2 0-.4.1-.5.3zm-3.6-7.8c0 .2.1.4.3.5.2 0 .4-.1.5-.3 0-.2-.1-.4-.3-.5-.3-.1-.5.1-.5.3zm33.7 11.8c.1.2.4.2.5.1.2-.1.2-.4.1-.6-.1-.2-.4-.2-.6-.1-.1.1-.1.4 0 .6zm-54.7-17.1c.1.1.3.1.3 0 .1-.1.1-.3 0-.3-.1-.1-.3-.1-.3 0-.1 0-.1.2 0 .3zm21.6 6.7c0 .1.1.2.2.2s.2-.1.2-.2-.1-.2-.2-.2c-.1-.1-.2 0-.2.2zm-.2-5.9c0 .1.1.2.3.2.1 0 .2-.1.2-.2s-.1-.2-.2-.2c-.2-.1-.3 0-.3.2zm-11.1 1c.1 0 .3 0 .3-.1s0-.3-.1-.3c-.1-.1-.3 0-.3.1-.1.1 0 .2.1.3zm42.5 25.3c0 .1.2.2.3.1.1-.1.2-.2.1-.3 0-.1-.2-.2-.3-.1-.1 0-.2.2-.1.3zm-54-26c.1.1.3 0 .4-.1s0-.3-.1-.4-.3 0-.4.1c-.1.1 0 .3.1.4zm23.2 7.7c0 .1.2.2.3.2.1 0 .2-.2.2-.3s-.2-.2-.3-.2-.2.1-.2.3zm-1.4-6.6c0 .2.2.2.3.2.1 0 .2-.2.2-.3s-.2-.2-.3-.2c-.2 0-.3.2-.2.3zm-12.2 3.5s.1 0 .1.1c.1 0 .3-.1.3-.2s-.1-.3-.2-.3-.3.1-.3.2c-.1 0 0 .1.1.2zm1-6.9c0 .1.1.3.2.3.2 0 .3-.1.3-.2 0-.2-.1-.3-.2-.3-.1-.1-.2 0-.3.2zm24 33c.1.1.3.2.4.1s.2-.3.1-.4c-.1-.1-.2-.2-.4-.1-.1.1-.2.3-.1.4zm-13.3-18c.1.1.3.2.4.1s.2-.3.1-.4c-.1-.1-.2-.2-.4-.1-.1.1-.2.3-.1.4zm-21.5 4.8c.1.1.3.2.4.1s.2-.3.1-.4c-.1-.1-.2-.2-.4-.1-.1.1-.2.2-.1.4zm4.6-11.2c.1.1.3.2.4.1s.2-.3.1-.4c-.1-.1-.2-.2-.4-.1-.1.1-.1.3-.1.4zm29.9 13.6c.1.1.3.2.4.1s.2-.3.1-.4c-.1-.1-.2-.2-.4-.1-.1.1-.1.3-.1.4zm1.7 2.4c.1.1.3.2.4.1s.2-.3.1-.4c-.1-.1-.2-.2-.4-.1-.1 0-.1.2-.1.4zm-36.9 10c0 .3.1.5.4.5s.5-.1.5-.4c0-.3-.1-.5-.4-.5-.2 0-.4.2-.5.4zm1.8-11.3c0 .3.1.5.4.5.3 0 .5-.1.5-.4 0-.3-.1-.5-.4-.5-.2-.1-.5.1-.5.4zm1.7-11.4c0 .3.1.5.4.5s.5-.1.5-.4-.1-.5-.4-.5c-.2 0-.4.1-.5.4zm1.8-11.4c0 .3.1.5.4.5s.5-.1.5-.4-.1-.5-.4-.5c-.2 0-.5.1-.5.4zm41.5 23.2c.2.2.5.3.7.1s.2-.5.1-.7c-.1-.2-.4-.3-.6-.1-.3.2-.4.5-.2.7zm-8-10.9c.2.2.4.3.7.1.2-.2.3-.4.1-.7-.1-.2-.4-.3-.6-.1-.3.2-.3.5-.2.7zm-8.3-8.1c.2.2.4.3.7.1.2-.2.3-.5.1-.7-.1-.2-.4-.3-.6-.1-.3.2-.4.5-.2.7zm-8.1 24.1c.1.2.3.4.6.4.2-.1.4-.3.3-.6s-.3-.4-.6-.4c-.2.1-.3.3-.3.6zm-3.6-10.5c.1.3.3.4.6.4.2-.1.4-.3.3-.6s-.3-.4-.6-.4c-.2.1-.3.4-.3.6zm-1.7-11.9c.1.3.3.4.6.4.3-.1.4-.3.3-.6s-.3-.4-.6-.4c-.2 0-.4.3-.3.6zm-1.6 26.1c.1.3.3.4.6.3s.4-.3.3-.6c-.1-.2-.3-.4-.5-.3-.3.1-.4.3-.4.6zm-3.2-12.3c.1.3.3.4.6.4.2-.1.4-.3.4-.6-.1-.3-.3-.4-.6-.4-.3.1-.5.3-.4.6zm-1.2-10.3c.1.3.3.4.6.4.3-.1.4-.3.4-.6s-.3-.4-.5-.4c-.4.1-.5.4-.5.6zm-2.2-11.2c0 .2.3.4.5.4.3-.1.4-.3.4-.6s-.3-.4-.5-.4c-.3.1-.5.3-.4.6zm23.7 18.6c.1.2.4.3.7.1.2-.1.3-.4.1-.7-.1-.2-.4-.3-.6-.2-.3.3-.3.5-.2.8zm-4.2-8.6c.1.2.4.3.7.1.2-.1.3-.4.1-.7-.1-.2-.4-.3-.6-.2-.3.3-.4.6-.2.8zm-10.4-6.7c.1.2.4.3.7.1.2-.1.3-.4.1-.7-.1-.2-.4-.3-.6-.1-.3.2-.3.5-.2.7zm-2.3 10.7c.1.2.3.3.5.2.2-.1.3-.3.2-.5s-.3-.3-.4-.2c-.2.1-.3.3-.3.5zm-3.3-8c.1.2.3.3.5.2s.3-.3.2-.5-.3-.3-.5-.2c-.2.1-.3.3-.2.5zm-3.4-8c.1.2.3.3.5.2s.3-.3.2-.5-.3-.3-.5-.2-.3.4-.2.5zm-11.4 15.1c0 .2.2.4.4.4s.3-.2.3-.4-.2-.4-.4-.4-.3.2-.3.4c0-.1 0 0 0 0zm31.4-10.3c.1.1.3.1.5 0 .1-.1.1-.4 0-.5-.1-.1-.3-.1-.5 0s-.2.4 0 .5zm-27.4 1.6c.1.1.3.2.4.1.1-.1.2-.3.1-.4s-.3-.2-.4-.1c-.2.1-.2.3-.1.4z" fill="#fff" opacity=".86"/><path d="M217.5 79.5s-1.6 13.6-4.4 18.2c0 0 16.8 2.1 22.8 4.4l-.9-15.7z" fill="url(#d)"/><path d="M242.5 86.7c7.5-3.1 11.3-10.5 12.9-10.3s5.2-.2 5.6-1.9-1.7-7.9-2.2-13.9c0-.6-.1-1.1 0-1.7v-2.3c-.7-5.9-1.4-7.2-3-8.6-3.9-3.4-6.5-8.8-19.8-8.9-7 0-15.5-.2-22.1 8.9-7 9.6-1.1 20.8 1.6 23.3s6.1 3.9 4.4 6.7c-.6.7-1.5 1.2-2.4 1.3l.7.6c.2.2.5.4.7.5l3.4 2.3c6.1 4.4 13.2 6.9 20.2 4z" fill="#ffbeb6"/><path d="M248.6 58.4c-5.4-2.8-6 .7-11.4 5-5.3 4.3-10.1 1.8-17.1.1-7.1-1.7-7.4 5.4-4.7 7.8 2.7 2.5 6.1 3.9 4.4 6.7-1.7 2.9-13 4.8-19.7-14.9-11.6-33.9 14.4-38.3 27.7-39.3 24.5-1.8 37.5 13.8 37.5 13.8l9.5-2.9c1.2 10.8-10.5 28.6-26.2 23.7z" fill="#23286b"/><path d="M213.8 95s-11.4 1.8-22.4 16.2c-18.1 23.7-14.8 32-37.7 56.6-11.7 12.6-22.9 31.3-19.6 52.1 0 0 78.9 34.4 140.9 11.1l-39.1-129c-6.3-2.3-15.5-5.8-22.1-7z" fill="url(#e)"/><path d="M262.4 62c-.9 2.6-3.8 4-6.4 3.1-.9-.3-1.8-1-2.4-1.8-.5-.6.4-1.4.9-.8 1.2 1.8 3.6 2.2 5.3 1 .7-.4 1.2-1.1 1.4-1.8.3-.8 1.5-.5 1.2.3z" fill="#1c2868"/><path d="m267.8 37.3-69.7 20.4-.9-1.8-.8-2.9c-4.8-16.5 4.6-33.7 21-38.5l9-2.7c17.1-5.1 35 4.7 40.1 21.9l.4 1.8z" fill="url(#f)"/><path d="M305.7 28.4 198.4 60l-1.1-3.9 104.2-30.6c1.8-.5 3.6.4 4.1 2.2z" fill="url(#g)"/><path d="M330.4 248.3c-2.5-2.5 4.7-13.2 1.4-15.6-3-2.2-6.9 6.2-13.7 10.2-5.3 3.1-8.1 2.9-15.1.4-13.9-4.9-44.7-20.2-44.7-20.2l-8.5 36.2c9.8 1.2 39.7-2.2 54.5-1.8 11.4.3 16.1 10.9 29.8 10.9 13.8 0 33.7-17.8 25.7-32.5l-10.6 7.8c.1-.1-14.1 9.1-18.8 4.6z" fill="#ffbeb6"/><path d="M225.7 108.6c3.8 3 5 7.9 4.4 12.7-1.4 10.9-3.3 35.6 4.4 53.2 19 44 64.3 38.1 64.3 38.1l-1.5 72.8s-30.6 8.2-47.7-4.3c-28.2-20.6-29.5-27.1-43.5-31.8-32.6-10.8-57.9-50.3-1.2-134.2 3.4-5 6.5-7.9 11.5-8.8 1.8-.3 3.8-.2 5 .1 1.4.4 3.2 1.2 4.3 2.2z" fill="#a1c3fc"/></svg></g><g transform="translate(1129.0 861.0) rotate(0.0 92.5 112.0) scale(1.6444444444444444 1.6580310880829017)"><svg width="112.5" height="135.1" viewBox="0 0 112.5 135.1"><linearGradient id="i" gradientTransform="matrix(-1 0 0 1 11804.4668 0)" gradientUnits="userSpaceOnUse" x1="11706.64" x2="11789.787" y1="61.807" y2="61.807"><stop offset="0" stop-color="#fff"/><stop offset="1" stop-color="#eee"/></linearGradient><linearGradient id="h"><stop offset="0" stop-color="#f1b505"/><stop offset="1" stop-color="#d89c05"/></linearGradient><linearGradient xmlns:xlink="http://www.w3.org/1999/xlink" id="j" gradientTransform="matrix(-1 0 0 1 11804.4668 0)" gradientUnits="userSpaceOnUse" x1="11691.954" x2="11804.467" xlink:href="#h" y1="129.376" y2="129.376"/><linearGradient xmlns:xlink="http://www.w3.org/1999/xlink" id="k" gradientTransform="matrix(-1 0 0 1 11804.4668 0)" gradientUnits="userSpaceOnUse" x1="11706.64" x2="11789.787" xlink:href="#h" y1="111.63" y2="111.63"/><linearGradient xmlns:xlink="http://www.w3.org/1999/xlink" id="l" gradientTransform="matrix(-1 0 0 1 11804.4668 0)" gradientUnits="userSpaceOnUse" x1="11715.697" x2="11780.729" xlink:href="#h" y1="61.807" y2="61.807"/><linearGradient xmlns:xlink="http://www.w3.org/1999/xlink" id="m" gradientTransform="matrix(-1 0 0 1 11804.4668 0)" gradientUnits="userSpaceOnUse" x1="11725.496" x2="11770.93" xlink:href="#h" y1="9.944" y2="9.944"/><path d="M14.7 123.6h83.1l-4.3-24-4.7-25.8-4.4-24L79 19.9 75.4 0H37.2l-3.7 19.9-5.4 29.9-4.4 24L19 99.6z" fill="url(#i)"/><path d="M0 135.1h112.5v-11.5H0z" fill="url(#j)"/><path d="M14.7 123.6h83.1l-4.3-24H19z" fill="url(#k)"/><path d="M23.7 73.8h65.1l-4.4-24H28.1z" fill="url(#l)"/><path d="M33.5 19.9H79L75.4 0H37.2z" fill="url(#m)"/></svg></g><g transform="translate(768.0 898.0) rotate(0.0 125.5 93.0) scale(1.6622516556291391 1.6741674167416742)"><svg width="151" height="111.1" viewBox="0 0 151 111.1"><linearGradient id="o" gradientTransform="matrix(.2862 .9582 .9582 -.2862 1965.3389 -2878.5454)" gradientUnits="userSpaceOnUse" x1="2244.396" x2="2327.544" y1="-2666.385" y2="-2666.385"><stop offset="0" stop-color="#fff"/><stop offset="1" stop-color="#eee"/></linearGradient><linearGradient id="n"><stop offset="0" stop-color="#f1b505"/><stop offset="1" stop-color="#d89c05"/></linearGradient><linearGradient xmlns:xlink="http://www.w3.org/1999/xlink" id="p" gradientTransform="matrix(.2862 .9582 .9582 -.2862 1965.3389 -2878.5454)" gradientUnits="userSpaceOnUse" x1="2229.711" x2="2342.223" xlink:href="#n" y1="-2598.815" y2="-2598.815"/><linearGradient xmlns:xlink="http://www.w3.org/1999/xlink" id="q" gradientTransform="matrix(.2862 .9582 .9582 -.2862 1965.3389 -2878.5454)" gradientUnits="userSpaceOnUse" x1="2244.396" x2="2327.544" xlink:href="#n" y1="-2616.562" y2="-2616.562"/><linearGradient xmlns:xlink="http://www.w3.org/1999/xlink" id="r" gradientTransform="matrix(.2862 .9582 .9582 -.2862 1965.3389 -2878.5454)" gradientUnits="userSpaceOnUse" x1="2253.454" x2="2318.487" xlink:href="#n" y1="-2666.384" y2="-2666.384"/><linearGradient xmlns:xlink="http://www.w3.org/1999/xlink" id="s" gradientTransform="matrix(.2862 .9582 .9582 -.2862 1965.3389 -2878.5454)" gradientUnits="userSpaceOnUse" x1="2263.253" x2="2308.686" xlink:href="#n" y1="-2718.247" y2="-2718.247"/><path d="M135.8 97 112 17.4l-21.7 11-23.4 11.9-21.8 11L18 65.1 0 74.3l10.9 36.6 20.1-2.2 30.3-3.4 24.2-2.7 26.1-2.9z" fill="url(#o)"/><path d="M151 107.8 118.8 0l-11 3.3L140 111.1z" fill="url(#p)"/><path d="M135.8 97 112 17.4l-21.7 11 21.3 71.3z" fill="url(#q)"/><path d="M85.5 102.6 66.9 40.3l-21.8 11 16.2 54z" fill="url(#r)"/><path d="M31 108.7 18 65.1 0 74.3l10.9 36.6z" fill="url(#s)"/></svg></g></svg>