<svg xmlns="http://www.w3.org/2000/svg" viewBox="0 0 2300 1500" width="2300" height="1500"><path fill="#FFF" d="M0 0h2300v1500H0z"/><g transform="translate(531.0 307.0) rotate(0.0 605.5 519.5) scale(0.8471600202031225 0.8471135360426835)"><svg width="1429.482" height="1226.518" viewBox="0 0 1429.482 1226.518"><path d="M471.775 341.725c19.03 113.128 5.386 207.06-41.921 281.218l315.52-32.455-64.168-265.342-209.432 16.58z" fill="#2866C4"/><path d="M468.102 761.005c-74.466 121.72-27.126 180.156-79.01 300.163-52.235 120.818-215.483 181.595-333.729 87.357-69.921-55.725-73.957-182.784-10.14-276.886 56.643-83.523 154.362-133.446 184.655-181.13 22.194-34.936 211.912-241.755 389.277-117.868 5.918 11.708-115.499 130.25-151.053 188.365z" fill="#CA1C2B"/><path d="M468.102 761.005c-74.466 121.72-27.126 180.156-79.01 300.163m364.885-235.136c16.498 8.38 48.846 6.752 113.782 27.358 119.092 37.792 131.47 135.805 210.31 225.593 81.881 93.251 235.754 86.707 294.779 3.48 73.699-103.919 46.465-229.063-49.814-289.546-85.454-53.684-187.364-64.921-234.28-96.392-24.587-16.493-52.242-41.567-84.779-81.539-79.386-97.525-181.964-87.017-248.063-56.421-94.842 43.901-89.279 223.104-1.935 267.468z" fill="#CA1C2B"/><ellipse cx="1178.248" cy="486.144" fill="#CA1C2B" rx="133.434" ry="37.808" transform="matrix(.99131911 -.13147785 .13147785 .99131911 -53.691 159.14)"/><path d="M1092.099 559.986c-1.525-25.336 1.171-64.881-8.257-80.25-4.371-57.676 116.113-79.467 168.531-42.425 4.539 3.207 20.862 6.078 24.255 10.182-3.391 4.435-8.609 10.957-13.363 16.176 1.101 29.59 18.304 63.741 30.648 102.047 19.096 59.256-192.565 147.943-201.814-5.73z" fill="#fff"/><path d="M1095.903 981.853c-52.579-15.317-62.573-63.285-19.346-64.896-80.039-100.034 43.195-200.961-5.486-332.784-4.749-62.67 254.914-40.773 275.416 44.431 17.668 73.425 68.425 129.678 80.8 244.925 7.77 72.363-5.609 119.693-31.902 170.058-63.296 121.247-242.207 87.758-299.482-61.735zm-654.661-318.68c-63.661 68.177-85.06 240.091-72.979 313.79-61.617 20.539-33.829 117.793 57.925 127.105 187.705-108.727 362.522 31.166 476.091-19.85 77.385-34.762 106.513-133.277 26.257-165.248 1.255-52.553 16.136-173.866 1.088-197.996-28.335-45.438-106.3-99-126.595-110.315-11.555-6.443-16.186 24.549-55.405 63.768-9.391 9.391-43.249 3.13-54.261 1.043-42.783-26.087-61.935-74.226-73.872-72.729-75.107 9.42-149.818 29.982-178.25 60.431z" fill="#CA1C2B"/><path d="M389.091 1062.168a1 1 0 0 1-.917-1.396c23.115-53.466 26.492-94.813 29.757-134.799 4.113-50.37 7.998-97.948 49.318-165.488a.999.999 0 1 1 1.706 1.043c-41.072 67.135-44.938 114.481-49.031 164.608-3.278 40.147-6.668 81.661-29.914 135.429a1.001 1.001 0 0 1-.918.604zm706.533-79.355c-33.149-9.657-48.954-31.69-46.995-47.519 1.364-11.022 10.982-18.118 25.88-19.226-18.938-22.964-27.655-49.869-26.64-82.177.924-29.394 9.658-60.58 18.105-90.74 15.015-53.613 30.541-109.053 4.214-158.509l1.766-.939c26.704 50.164 11.067 105.995-4.054 159.988-17.507 62.511-34.043 121.556 9.418 172.617l1.337 1.571-2.062.076c-15.198.566-24.667 6.976-25.98 17.585-1.856 15.009 13.482 36.005 45.569 45.353l-.559 1.92zm-165.422-96.664c-.021 0-.042 0-.063-.002a1 1 0 0 1-.936-1.061c.479-7.673 1.023-15.824 1.583-24.225 2.879-43.196 6.142-92.155 3.631-117.494a1 1 0 0 1 .896-1.094 1.01 1.01 0 0 1 1.094.896c2.527 25.504-.741 74.551-3.626 117.824-.56 8.397-1.103 16.546-1.582 24.217a1 1 0 0 1-.997.938z" fill="#2866C4"/><path d="M1125.142 259.528c15.149-53.802 93.845-142.955 151.674-106.545 21.747 13.693 16.618 49.136 16.618 49.136s-183.441 111.21-168.292 57.409z" fill="#fff"/><path d="M1100.338 181.613c-32.953 45.042-75.234 164.317-75.234 164.317s99.867 159.124 185.88 148.302c69.292-8.718 109.704-132.553 120.394-154.023 24.954-50.118-231.04-158.596-231.04-158.596" fill="#fff"/><path d="M1202.511 495.756c-17.597 0-36.853-6.463-57.387-19.282-19.059-11.899-39.269-29.277-60.066-51.654-35.374-38.057-60.55-77.959-60.8-78.358a1 1 0 0 1-.096-.866c.423-1.194 42.707-119.93 75.37-164.574a1.002 1.002 0 0 1 1.197-.331c.528.224 53.496 22.735 108.219 51.552 73.639 38.778 115.215 69.909 123.575 92.528 2.165 5.858 2.081 11.203-.249 15.883-1.503 3.017-3.628 8.15-6.319 14.649-16.403 39.609-54.815 132.367-114.846 139.92a68.97 68.97 0 0 1-8.599.532zm-176.3-149.95c2.749 4.31 26.998 41.816 60.331 77.674 32.426 34.88 80.328 75.296 124.317 69.76 58.878-7.407 96.978-99.413 113.248-138.701 2.706-6.535 4.843-11.696 6.376-14.776 2.075-4.167 2.13-8.978.164-14.298-18.984-51.366-216.282-136.752-229.969-142.619-31.396 43.468-71.566 154.852-74.468 162.96z" fill="#2866C4"/><path d="M1071.7 241.088c6.712-35.266 15.025-71.928 55.703-136.365 40.678-64.436 108.049-114.458 127.195-101.735 23.806 15.819 2.55 106.386-53.899 141.913-2.416 48.557-31.651 106.27-56.784 121.652-24.748 15.146-79.059 10.498-72.215-25.465z" fill="#fff"/><path d="M1143.917 267.553a1 1 0 0 1-.524-1.853c23.989-14.682 53.812-70.669 56.308-120.849a.998.998 0 0 1 .467-.796c38.891-24.477 62.597-76.763 63.048-113.172.166-13.411-3.09-23.021-9.17-27.061-2.931-1.948-7.213-2.338-12.731-1.159-26.963 5.764-78.829 48.364-113.064 102.595-39.293 62.241-48.412 98.424-55.567 136.018a1 1 0 0 1-1.965-.374c7.193-37.798 16.361-74.174 55.841-136.711 34.504-54.657 86.978-97.634 114.338-103.483 6.061-1.297 10.858-.809 14.257 1.449 6.664 4.428 10.237 14.639 10.063 28.751-.456 36.807-24.338 89.607-63.544 114.563-2.706 50.64-32.912 107.051-57.233 121.937a.995.995 0 0 1-.521.147z" fill="#2866C4"/><path d="M990.753 100.585c-18.406 8.102-22.796 134.225 5.878 222.614 27.4 84.463 59.964 177.403 142.3 173.066 79.158-4.17 6.425-176.785-55.805-234.898 11.053-56.297-48.926-179.905-92.373-160.782zm381.439 199.735c-5.637 36.246-28.127 66.816-48.818 83.8-13.866 11.382-41.006 5.322-42.266-2.809-4.313-27.842 9.392-81.933 28.457-105.687 22.883-28.51 69.338-18.456 62.626 24.696z" fill="#fff"/><path d="M1288.196 396.625c-11.532-8.277-8.023-32.024 3.994-48.904 13.302-18.685 53.341-13.578 46.282 21.766-12.198 15.266-39.052 35.195-50.276 27.138z" fill="#70A7F1"/><path d="M1294.659 399.507c-2.657 0-5.049-.637-7.046-2.07-4.377-3.142-6.932-8.517-7.392-15.549l-.003-.011a3.319 3.319 0 0 1-.099-.411c-4.55-29.378 9.917-83.109 28.666-106.468 11.948-14.886 31.154-20.497 46.704-13.638 13.931 6.143 20.544 20.765 17.69 39.114-3.807 24.477-15.843 49.188-33.895 69.594l-.032.042c-9.579 11.988-30.702 29.395-44.595 29.396zm46.868-139.048c-11.37 0-23.031 5.637-31.181 15.791-18.128 22.584-32.648 76.509-28.25 104.908.008.053.026.107.042.161l.041.142a.99.99 0 0 1 .031.195c.402 6.465 2.674 11.36 6.568 14.156 10.078 7.234 36.144-11.015 48.854-26.878.027-.042.058-.082.091-.12 10.33-11.662 28.416-36.088 33.479-68.648 2.706-17.399-3.47-31.222-16.521-36.977-4.182-1.843-8.646-2.73-13.156-2.73zm-31.961 15.165h.01z" fill="#2866C4"/><path d="M1339 253.767c-3.778 54.006-65.815 124.525-91.598 112.662-24.022-11.053-16.336-110.406 26.29-152.008 23.389-22.826 69.086-14.66 65.309 39.346z" fill="#fff"/><path d="M1247.402 366.428c-15.436-18.617-3.124-42.179 9.079-58.925 11.008-15.106 57.243-20.374 48.515 22.937-22.381 28.465-46.788 42.389-57.594 35.988z" fill="#70A7F1"/><path d="M1253.79 368.74c-2.491 0-4.77-.465-6.807-1.402-6.086-2.801-10.44-10.864-12.591-23.319-5.595-32.403 4.931-97.453 38.601-130.313 12.347-12.049 30.373-15.638 44.856-8.932 15.746 7.292 23.818 25.175 22.147 49.063-1.331 19.038-9.971 41.582-24.327 63.479-13.048 19.903-29.427 36.874-43.813 45.397-6.751 4-12.869 6.026-18.066 6.026zm48.817-165.228c-10.083 0-20.48 4.074-28.218 11.625-33.185 32.387-43.548 96.563-38.026 128.542 2.034 11.776 5.995 19.329 11.456 21.842 5.66 2.604 13.621 1.04 23.018-4.528 28.782-17.053 64.392-67.637 67.165-107.295 1.61-23.014-6.042-40.185-20.993-47.109-4.48-2.075-9.403-3.077-14.401-3.077z" fill="#2866C4"/><path d="M1293.434 202.12c-7.208 68.988-57.663 140.519-89.218 131.728-27.911-7.776-41.336-88.5 15.142-165.009 23.159-31.372 80.339-26.664 74.076 33.281z" fill="#fff"/><path d="M1201.57 332.741c-15.004-18.967-8.15-49.368 9.337-64.073 14.305-12.03 52.974-18.581 55.953 13.958-28.134 48.843-54.634 56.763-65.29 50.115z" fill="#70A7F1"/><path d="M1209.661 335.572c-1.98 0-3.889-.252-5.714-.761-8.345-2.325-15.389-10.525-19.833-23.089-11.194-31.647-4.891-88.28 34.43-143.463a1 1 0 1 1 1.629 1.161c-38.903 54.598-45.195 110.477-34.173 141.636 4.221 11.932 10.785 19.684 18.484 21.829 7.002 1.952 15.477-.266 24.507-6.411 26.117-17.772 57.802-70.409 63.448-124.457a1 1 0 0 1 1.989.208c-2.574 24.647-10.942 51.422-23.562 75.395-11.875 22.557-26.728 40.966-40.75 50.508-7.24 4.927-14.202 7.445-20.455 7.445zm1.323 159.66a1 1 0 0 1-.124-1.992c17.696-2.227 35.082-12.408 51.675-30.261a1 1 0 0 1 1.465 1.361c-16.921 18.207-34.716 28.597-52.89 30.884a1.093 1.093 0 0 1-.126.008zm-77.571 2.18c-34.762 0-63.289-17.657-87.069-53.831-21.355-32.486-36.151-75.335-50.664-120.074-12.904-39.778-20.428-91.433-20.643-141.719-.194-45.705 5.815-77.938 15.313-82.119 10.047-4.423 21.737-1.654 33.813 8.011 16.819 13.463 34.196 40.15 46.481 71.388 12.276 31.215 17.33 61.781 13.568 81.945 31.963 30.078 66.398 89.547 82.009 141.693a1 1 0 1 1-1.916.574c-15.586-52.066-50.014-111.442-81.861-141.183a1.003 1.003 0 0 1-.299-.924c3.887-19.796-1.108-50.216-13.362-81.373-12.163-30.927-29.311-57.304-45.87-70.559-11.616-9.298-22.3-11.902-31.756-7.742-16.604 7.309-23.249 129.916 6.426 221.391 14.47 44.604 29.214 87.314 50.434 119.592 24.613 37.442 54.349 54.698 90.862 52.784a1.019 1.019 0 0 1 1.052.946 1 1 0 0 1-.946 1.051c-1.874.099-3.731.148-5.57.148z" fill="#2866C4"/><path d="M1293.435 203.12a1 1 0 0 1-.991-1.143c.05-.348 4.776-34.963-16.162-48.147-27.31-17.195-56.868-4.688-76.856 8.832a1 1 0 1 1-1.121-1.656c20.483-13.854 50.822-26.637 79.044-8.868 22.043 13.879 17.288 48.652 17.074 50.125a.999.999 0 0 1-.988.857z" fill="#2866C4"/><path d="M1318.296 652.274c30.599 8.789 58.194-17.83 58.194-29.308 0 0-49.91-100.8-65.967-154.366 2.386 16.331-40.893 43.562-118.699 53.882s-143.106 1.906-145.852-18.794c10.066 75.195-9.585 170.021-9.585 170.021 74.101 53.965 230.472 21.747 281.908-21.436zM.032 1020.084c.724 50.038 14.6 109.395 78.416 157.839 83.821 63.631 194.37 36.447 256.841 33.426 62.822 1.844 195.789-187.506 142.367-227.652-56.922 7.702-104.498-82.801-218.74-111.587C184.62 853.39-1.791 894.17.032 1020.084z" fill="#CA1C2B"/><ellipse cx="481.869" cy="1098.095" fill="#CA1C2B" rx="144.963" ry="116.839" transform="matrix(.99131911 -.13147785 .13147785 .99131911 -140.197 72.89)"/><path d="M470.726 985.165c-25.235 0-48.959-18.023-78.333-40.339-33.391-25.366-74.946-56.936-133.721-71.745-31.323-7.892-87.342-6.634-141.885 13.975a1 1 0 0 1-.707-1.871c47.578-17.975 105.078-23.617 143.081-14.043 59.172 14.909 100.908 46.615 134.442 72.092 31.729 24.105 56.799 43.143 83.919 39.474a1.004 1.004 0 0 1 1.125.857 1 1 0 0 1-.857 1.125c-2.371.32-4.725.476-7.064.476zm673.192-282.125c-35.085 0-77.01-5.866-108.119-28.521a1.003 1.003 0 0 1-.391-1.012c.015-.069 1.459-7.067 3.334-18.539a1.001 1.001 0 0 1 1.974.322c-1.562 9.547-2.826 16.014-3.222 17.987 44.739 32.186 112.017 29.587 148.225 25.152 54.08-6.62 105.867-25.038 131.934-46.922a.997.997 0 0 1 .919-.195c9.836 2.825 28.27.487 42.085-8.321 5.918-3.772 13.297-10.336 14.845-20.181a1.001 1.001 0 0 1 1.977.311c-1.317 8.375-6.762 15.829-15.746 21.557-14.055 8.962-32.817 11.428-43.197 8.698-26.468 21.968-78.41 40.408-132.572 47.039-11.473 1.404-26.052 2.624-42.045 2.625z" fill="#2866C4"/><ellipse cx="380.768" cy="1090.318" fill="#CA1C2B" rx="158.527" ry="135.548" transform="matrix(.98729483 -.15889907 .15889907 .98729483 -168.417 74.358)"/><path d="M324.369 1181.338c76.964-2.313 94.907-19.586 175.432-19.586 62.822 1.844 31.922-137.714-21.501-177.86-19.58 2.649-38.055-6.322-58.518-20.404-187.907 23.543-178.264 220.34-95.414 217.85z" fill="#fff"/><path d="M338.164 1117.155c-8.484-63.968 48.976-124.358 128.342-134.885a181.701 181.701 0 0 1 14.491-1.334c-32.838-21.798-76.373-31.751-121.768-24.444-86.44 13.912-146.87 85.106-134.974 159.016 11.754 73.031 89.728 121.379 174.974 109.096l89.328-9.753c-75.817 6.388-142.218-36.069-150.392-97.697z" fill="#CA1C2B"/><path d="M473.512 1216.487c-70.192 0-128.694-41.563-136.338-99.2-4.144-31.244 7.041-62.604 31.494-88.305 24.397-25.641 59.098-42.582 97.708-47.703 3.81-.506 7.676-.894 11.529-1.158-33.389-21.174-76.387-29.421-118.516-22.642-41.571 6.69-78.42 26.815-103.759 56.668-25.301 29.808-36.092 65.749-30.386 101.201 6.807 42.296 37.193 78.595 81.283 97.101a1 1 0 0 1-.774 1.844c-21.642-9.083-40.574-22.668-54.75-39.286-14.662-17.188-24.252-37.707-27.734-59.34-5.801-36.04 5.15-72.553 30.836-102.813 25.647-30.216 62.925-50.582 104.967-57.349 43.695-7.031 88.335 1.934 122.48 24.599a1 1 0 0 1-.502 1.832 181.02 181.02 0 0 0-14.412 1.326c-38.159 5.062-72.438 21.788-96.521 47.1-24.028 25.253-35.023 56.03-30.96 86.662 8.048 60.675 73.636 103.193 149.317 96.832.553-.066 1.034.362 1.081.912a1 1 0 0 1-.913 1.08c-5.092.43-10.142.64-15.129.64z" fill="#2866C4"/><path d="M521.058 959.835c-40.721 12.32-120.927 40.332-134.757 103.508-17.643 80.592 143.261 139.084 239.865 76.814 78.679-50.716-64.387-192.642-105.108-180.322z" fill="#fff"/><path d="M462.4 1155.986a1 1 0 0 1-.325-.055c-54.841-18.844-84.967-55.271-76.751-92.802a1 1 0 0 1 1.954.427c-7.985 36.474 21.63 71.99 75.448 90.483a1 1 0 0 1-.325 1.946zm-53.782-134.052a1 1 0 0 1-.747-1.665c15.662-17.602 38.969-33.044 69.274-45.9a1 1 0 0 1 .781 1.842c-30.031 12.739-53.098 28.01-68.561 45.389a.999.999 0 0 1-.748.335z" fill="#2866C4"/><path d="M903.666 1059.563c1.595 19.576-104.711 81.966-193.967 98.414-85.292 15.718-180.266 30.939-214.807-41.806-33.208-69.938 133.804-104.016 231.546-66.219 43.225-35.66 173.463-36.599 177.228 9.611z" fill="#fff"/><path d="M563.924 1052.321c39.484-12.602 106.971-18.899 162.514-2.369" fill="#fff"/><path d="M370.238 1178.674a1 1 0 0 1-.132-1.991c13.368-1.801 25.152-4.057 36.548-6.237 23.499-4.498 45.693-8.746 81.127-9.557.075 0 .15.005.224.021 21.62 4.431 44.314 5.502 65.631 3.092.131-.014.263-.003.39.033 42.217 12.182 97.641 3.621 155.492-7.04 92.363-17.021 194.59-79.695 193.151-97.35a1 1 0 0 1 .916-1.078c.549-.029 1.033.364 1.078.916.823 10.11-24.078 30.264-63.439 51.343-43.301 23.188-91.174 40.733-131.344 48.136-58.006 10.69-113.607 19.271-156.217 7.05-21.43 2.401-44.225 1.321-65.948-3.12-35.203.813-57.294 5.042-80.684 9.519-11.423 2.187-23.235 4.447-36.658 6.256a1.02 1.02 0 0 1-.135.009z" fill="#2866C4"/><path d="M673.391 1002.798c57.258-41.216 115.972-34.615 163.55-9.952 26.958 13.974 53.595 36.409 73.203 60.454 11.384 31.608 4.535 41.069 21.69 73.851-24.029 20.235-100.071-9.635-116.894-64.999-24.44 16.966-88.029 10.446-88.029 10.446s-90.077-40.048-53.52-69.799z" fill="#fff"/><path d="M935.814 1122.593a19.493 19.493 0 0 1-3.98 4.557c-48.346 7.821-90.633-70.199-27.17-80.432 24.735 29.455 39.603 62.359 31.15 75.875z" fill="#70A7F1"/><path d="M910.49 1134.528c-6.707 0-14.257-1.187-22.343-3.581-28.826-8.539-62.599-32.587-73.763-67.226-25.176 16.05-85.005 10.133-87.575 9.87a1.002 1.002 0 0 1-.894-1.097c.057-.55.561-.94 1.097-.894.633.066 63.502 6.288 87.357-10.271a1.002 1.002 0 0 1 1.527.53c10.519 34.616 44.151 58.678 72.818 67.169 18.219 5.397 34.101 4.408 42.475-2.644a18.582 18.582 0 0 0 3.776-4.322c8.174-13.07-4.888-44.482-31.059-74.689a238.022 238.022 0 0 0-19.72-20.157 1.001 1.001 0 0 1-.067-1.413 1.002 1.002 0 0 1 1.413-.067 240.527 240.527 0 0 1 19.886 20.327c27.162 31.354 40.01 63.042 31.242 77.061a20.552 20.552 0 0 1-4.182 4.79c-5.214 4.391-12.813 6.613-21.99 6.614z" fill="#2866C4"/><path d="M630.522 981.564c46.211-15.253 114.705-23.986 147.283 11.811 46.766 51.388 12.874 206.102-18.855 206.134s-69.17-56.684-41.666-130.887c-19.395 6.546-79.911 28.108-102.704-5.779s-17.004-70.404 15.942-81.278z" fill="#fff"/><path d="M796.757 1122.354c-6.601 40.909-23.92 77.14-37.807 77.155-3.523.004-7.278-.864-11.127-2.489-14.749-18.191-18.29-59.174-1.463-78.158 15.706-17.72 45.118-8.454 50.397 3.492z" fill="#70A7F1"/><path d="M758.923 1200.509c-12.314 0-25.548-8.443-35.403-22.593-19.227-27.601-22.132-67.724-7.888-107.68-11.595 3.929-32.698 11-53.733 12.053a1.01 1.01 0 0 1-1.048-.949 1 1 0 0 1 .949-1.049c21.041-1.053 42.256-8.243 53.654-12.106l1.511-.511a1.001 1.001 0 0 1 1.257 1.295c-14.821 39.988-12.227 80.289 6.939 107.804 9.482 13.612 22.102 21.736 33.763 21.736h.025c7.244-.008 15.205-9.009 22.417-25.347 10.703-24.245 17.756-59.773 18.406-92.722.765-38.781-7.299-69.463-22.706-86.394-7.854-8.63-18.313-15.1-31.083-19.229a1 1 0 0 1 .615-1.903c13.106 4.238 23.855 10.896 31.946 19.786 15.754 17.311 24.002 48.484 23.227 87.778-.654 33.195-7.772 69.019-18.575 93.49-5.342 12.102-13.885 26.528-24.245 26.539h-.027zM603.081 1058.27c-3.357 0-6.378-.198-8.952-.593a1 1 0 1 1 .303-1.977c17.296 2.648 55.285-3.721 77.857-20.112a1 1 0 1 1 1.174 1.619c-19.63 14.255-50.735 21.063-70.383 21.063z" fill="#2866C4"/><path d="M566.866 973.757c40.203-18.898 124.826-32.282 145.271 6.887 29.349 56.23-36.51 184.941-64.529 177.599-28.018-7.342-52.537-70.206-7.499-123.304-18.643 1.274-54.386 42.432-78.763 14.226s-23.142-61.935 5.52-75.408z" fill="#fff"/><path d="M700.838 1094.555c-15.889 37.085-40.492 67.026-53.23 63.688-3.033-.795-6.067-2.372-9.017-4.608-10.086-17.153-3.513-57.661 15.947-73.648 15.79-12.973 44.507.972 46.301 14.568z" fill="#70A7F1"/><path d="M650.06 1159.554c-.915 0-1.818-.109-2.705-.342-12.364-3.24-23.581-16.465-29.274-34.515-9.406-29.82-1.456-63.616 21.266-90.404a1 1 0 1 1 1.526 1.293c-22.274 26.261-30.081 59.349-20.883 88.51 5.405 17.137 16.346 30.16 27.873 33.181 6.362 1.669 15.448-4.42 25.588-17.14 15.074-18.909 29.547-48.624 37.771-77.55 9.678-34.037 9.688-62.974.029-81.479-2.534-4.854-6.204-9.07-10.909-12.531a1 1 0 0 1 1.185-1.611c4.952 3.644 8.82 8.09 11.497 13.217 9.896 18.961 9.939 48.421.121 82.952-8.292 29.163-22.903 59.147-38.131 78.25-6.815 8.55-16.389 18.17-24.954 18.17z" fill="#2866C4"/><path d="M521.058 959.835c34.528-12.947 105.541-10.256 111.096 25.998 7.974 52.045-78.287 135.491-98.328 122.208s-22.292-79.067 20.937-102.206c-3.198 29.37-25.032 40.992-43.316 16.024-18.283-24.968-15.005-52.793 9.611-62.023z" fill="#fff"/><path d="M593.495 1071.435c-23.074 25.707-49.649 43.248-59.67 36.606-2.505-1.66-4.732-4.141-6.627-7.256-1.527-12.514 9.005-40.981 28.802-50.023 16.618-7.591 40.098 9.769 37.495 20.673z" fill="#70A7F1"/><path d="M539.153 1110.471c-2.189 0-4.191-.477-5.88-1.596-9.368-6.209-15.05-23.403-14.14-42.785 1.276-27.182 14.419-50.037 35.157-61.138a1.001 1.001 0 0 1 .944 1.764c-20.111 10.765-32.859 32.996-34.103 59.468-.878 18.704 4.445 35.19 13.246 41.023 4.49 2.979 13.197.631 24.514-6.603 16.896-10.801 36.218-30.244 50.425-50.744 16.707-24.106 24.466-46.792 21.849-63.877-1.617-10.55-8.98-18.787-21.887-24.481a1 1 0 1 1 .808-1.83c13.381 5.904 21.354 14.897 23.056 26.009 2.695 17.593-5.182 40.79-22.182 65.319-14.348 20.703-33.887 40.355-50.991 51.289-6.348 4.058-14.383 8.182-20.816 8.182zm589.381-582.568c-13.745 0-26.535-.728-37.911-2.193-28.039-3.613-44.248-11.387-45.642-21.889a.999.999 0 1 1 1.982-.263c1.245 9.381 17.251 16.733 43.915 20.168 27.462 3.539 63.267 2.745 100.814-2.235 63.58-8.433 104.233-28.659 115.101-43.882 2.342-3.28 3.267-6.245 2.749-8.811a1 1 0 1 1 1.961-.395c.631 3.131-.405 6.619-3.082 10.368-11.11 15.564-52.295 36.191-116.465 44.703-22.188 2.943-43.78 4.429-63.423 4.429zm189.763 125.37a1.001 1.001 0 0 1-.599-1.801c4.992-3.723 11.805-10.158 16.641-14.9a15.537 15.537 0 0 0 3.648-16.554l-32.838-87.394a1.001 1.001 0 0 1 1.873-.704l32.838 87.394c2.442 6.5.825 13.834-4.121 18.685-4.88 4.786-11.764 11.286-16.846 15.076a.995.995 0 0 1-.597.198zm-766.238-422.82c25.112-93.297-126.479-134.511-175.597-11.647-38.871 97.231 35.569 211.513 79.606 211.513s60.445-72.44 69.444-96.425 9.26-39.211 26.548-103.441z" fill="#2866C4"/><path d="M571.921 586.143c7.161 66.55 116.229 119.21 175.788 101.961 58.611-16.975 67.155-82.98 11.752-134.643-51.239-47.78-196.727-52.705-187.54 32.682z" fill="#CA1C2B"/><path d="M637.069 580.457c4.143 44.545 64.941 77.912 99.404 66.366 33.914-11.362 37.335-55.966 9.64-92.705-26.251-34.824-114.36-30.814-109.044 26.34z" fill="#fff"/><path d="M721.308 650.096c-15.077 0-32.632-5.555-48.267-15.739-21.623-14.086-35.097-33.697-36.968-53.807-1.953-20.995 8.273-36.932 28.793-44.875 28.289-10.95 66.626-2.613 82.045 17.841 16.261 21.572 22.549 47.265 16.411 67.053-4.147 13.37-13.322 22.776-26.533 27.202-4.672 1.565-9.909 2.325-15.482 2.325zm-28.989-117.291c-9.208 0-18.413 1.515-26.73 4.735-11.358 4.397-30.038 15.807-27.524 42.825 1.814 19.498 14.96 38.566 36.068 52.316 20.921 13.628 45.264 18.808 62.022 13.193 12.575-4.213 21.309-13.169 25.258-25.898 5.951-19.185-.218-44.189-16.099-65.256-10.423-13.828-31.719-21.915-52.996-21.915z" fill="#2866C4"/><ellipse cx="760.444" cy="342.595" fill="#fff" rx="37.526" ry="71.394" transform="matrix(.81327344 -.58188169 .58188169 .81327344 -57.356 506.454)"/><path d="M788.586 405.662c-6.229 0-13.279-1.896-20.797-5.676-13.752-6.914-27.488-19.334-38.678-34.973-11.188-15.639-18.51-32.649-20.613-47.898-2.135-15.477 1.353-27.337 9.821-33.396 8.469-6.059 20.82-5.532 34.779 1.486 13.753 6.914 27.488 19.334 38.678 34.973 11.188 15.639 18.51 32.649 20.613 47.898 2.136 15.477-1.353 27.337-9.821 33.396-3.908 2.796-8.645 4.189-13.982 4.189zm-56.273-124.134c-4.924 0-9.268 1.269-12.829 3.817-7.835 5.605-11.033 16.792-9.004 31.497 2.061 14.933 9.255 31.627 20.259 47.007s24.481 27.579 37.949 34.351c13.261 6.667 24.882 7.253 32.717 1.646 7.835-5.605 11.033-16.792 9.004-31.497-2.06-14.933-9.255-31.627-20.259-47.007s-24.481-27.579-37.949-34.351c-7.233-3.636-13.979-5.463-19.888-5.463z" fill="#2866C4"/><ellipse cx="741.723" cy="359.715" fill="#fff" rx="45.299" ry="86.182" transform="matrix(.83311436 -.55310077 .55310077 .83311436 -75.175 470.285)"/><path d="M774.278 436.8c-7.794 0-16.633-2.586-26.015-7.721-16.271-8.905-32.292-24.444-45.112-43.755-26.589-40.05-30.918-84.12-9.649-98.241 21.27-14.122 60.205 6.975 86.793 47.024 12.821 19.311 20.924 40.108 22.815 58.56 1.915 18.681-2.761 32.773-13.166 39.681-4.479 2.974-9.774 4.453-15.666 4.453zm-65.092-152.167c-5.43 0-10.373 1.324-14.578 4.116-20.35 13.511-15.77 56.337 10.209 95.468 12.645 19.046 28.415 34.355 44.407 43.107 15.791 8.643 29.857 9.833 39.614 3.357 9.756-6.477 14.117-19.905 12.282-37.811-1.859-18.135-9.848-38.612-22.492-57.657-20.61-31.043-48.596-50.581-69.442-50.581z" fill="#2866C4"/><path d="M598.015 567.267c5.679 20.325 64.901 79.639 106.821 92.342 7.253-25.895 13.338-58.752 17.963-77.489 7.377 18.102 18.68 35.359 33.843 63.516 7.724-15.279 15.587-32.307 16.155-50.812-14.291-35.569-16.196-62.563-17.149-84.476-17.229-31.123-119.807-39.6-134.312-2.328-2.246 17.889-6.532 35.747-23.322 59.248z" fill="#fff"/><path d="M704.836 660.609c-.097 0-.195-.015-.29-.043-18.759-5.685-43.32-21.551-67.385-43.531-21.104-19.275-37.222-39.167-40.108-49.499a1 1 0 0 1 .149-.851c15.87-22.213 20.729-39.567 23.143-58.791a.967.967 0 0 1 .06-.238c5.475-14.068 23.929-23.168 50.629-24.965 32.667-2.203 74.636 7.564 85.49 27.172a1 1 0 0 1 .124.441c1.026 23.626 3.19 49.584 17.077 84.146a.997.997 0 0 1 .072.404c-.574 18.727-8.349 35.578-16.262 51.232a1.002 1.002 0 0 1-.88.549c-.373-.024-.717-.199-.894-.525-5.223-9.698-10.042-18.198-14.294-25.697-7.583-13.376-13.698-24.163-18.413-35.096-1.538 6.487-3.243 14.402-5.034 22.716-3.59 16.668-7.66 35.56-12.222 51.846a.996.996 0 0 1-.963.73zm-105.724-93.158c6.132 19.675 63.465 77.667 105.037 90.897 4.435-16.002 8.405-34.434 11.917-50.736 2.076-9.639 4.037-18.743 5.763-25.731.104-.42.467-.726.898-.758a.99.99 0 0 1 .998.62c4.81 11.801 11.285 23.223 19.483 37.684 4.009 7.07 8.521 15.029 13.403 24.047 7.477-14.909 14.589-30.911 15.18-48.472-13.887-34.639-16.095-60.683-17.131-84.372-10.656-18.784-51.553-28.09-83.493-25.942-25.82 1.738-43.616 10.331-48.855 23.582-2.442 19.36-7.345 36.865-23.201 59.183z" fill="#2866C4"/><path d="M642.389 450.684c.737 25.787-2.928 49.846-10.166 69.791-7.695 21.202 44.032 47.037 88.207 51.018 17.223-15.838 25.365-34.045 24.928-44.986-1.545-17.097-1.764-35.764-.648-58.404z" fill="#fff"/><path d="M720.43 572.493a.903.903 0 0 1-.09-.004c-35.975-3.243-75.688-20.64-86.721-37.991-3.189-5.016-3.976-9.849-2.336-14.365 7.332-20.203 10.827-44.208 10.106-69.42a1 1 0 0 1 1.168-1.015l102.321 17.419a1 1 0 0 1 .831 1.035c-1.113 22.563-.909 41.077.645 58.265.436 10.873-7.204 29.221-25.247 45.812-.186.17-.427.264-.677.264zm-77.01-120.619c.582 25.016-2.958 48.831-10.257 68.942-1.416 3.902-.695 8.144 2.144 12.609 10.702 16.831 49.446 33.736 84.771 37.031 17.246-15.996 24.679-33.944 24.28-43.909-1.538-17.008-1.76-35.349-.69-57.607z" fill="#2866C4"/><path d="M727.429 237.866c-53.353-57.097-164.232-59.069-204.459 2.836-65.509 100.813-1.694 220.103 98.048 227.401 36.605 2.678 125.899-258.458 106.411-230.237z" fill="#2866C4"/><path d="M741.35 271.458c19.173 22.454 21.604 51.788 26.392 67.337 8.431 27.379 36.422 33.51 45.073 83.182 11.967 68.714-74.367 117.279-153.405 46.125-6.838 32.136-47.145 21.107-51.932-9.202-71.631-27.177-90.393-145.106 14.18-77.531-80.676-130.401 61.929-177.559 119.692-109.912z" fill="#fff"/><path d="M642.39 451.684c-.038 0-.077-.002-.115-.006-11.801-1.354-20.315-6.578-22.775-13.974-1.384-4.162-.515-8.378 2.268-11.004 2.34-2.208 5.651-2.973 9.363-2.246-14.325-17.681-31.231-29.253-50.292-34.416a1.001 1.001 0 0 1-.704-1.227 1.004 1.004 0 0 1 1.227-.704c20.366 5.516 38.301 18.166 53.308 37.597a1 1 0 0 1-1.161 1.54c-4.201-1.673-7.98-1.343-10.368.911-2.21 2.085-2.878 5.502-1.742 8.917 2.208 6.639 10.098 11.356 21.105 12.618a1 1 0 0 1-.112 1.993zm-12.019-150.802c12.077 56.497-8.713 80.488-8.713 80.488-75.303-59.036-13.562-177.754 55.713-153.184 0 0-24.145 25.335-47 72.696z" fill="#2866C4"/><path d="M621.018 284.656s32.163-97.289 130.583-74.426c101.65 23.614 76.506 134.915 20.872 141.326-65.382 7.534-145.471-49.768-145.471-49.768z" fill="#2866C4"/><path d="M739.769 504.067c-24.071 0-52.451-9.493-81.029-35.22a.999.999 0 1 1 1.338-1.486c28.16 25.35 56.078 34.703 79.704 34.705 14.947 0 28.173-3.741 38.666-9.544 25.678-14.199 38.469-41.165 33.382-70.372-5.145-29.54-17.201-43.55-27.839-55.91-7.083-8.229-13.772-16.003-17.205-27.149a1 1 0 0 1 1.912-.589c3.309 10.748 9.565 18.017 16.809 26.434 10.807 12.557 23.054 26.788 28.294 56.872 5.237 30.073-7.938 57.84-34.385 72.465-10.762 5.952-24.334 9.794-39.646 9.795z" fill="#2866C4"/><path d="M621.019 469.103c-.024 0-.049 0-.074-.002-47.144-3.45-88.381-31.882-110.31-76.058-11.241-22.646-16.468-48.064-15.116-73.509 1.475-27.765 10.429-54.471 26.613-79.376 15.44-23.762 42.281-39.662 75.578-44.771a1 1 0 0 1 .304 1.976c-32.726 5.022-59.079 20.607-74.205 43.885-30.632 47.141-34.887 103.554-11.382 150.906 21.611 43.536 62.233 71.556 108.664 74.953a1.001 1.001 0 0 1-.072 1.997z" fill="#fff"/><ellipse cx="597.459" cy="424.629" fill="#fff" rx="45.299" ry="86.182" transform="matrix(.77865946 -.62744677 .62744677 .77865946 -134.19 468.866)"/><path d="M633.642 498.469c-21.23 0-49.68-16.8-72.234-44.789-30.163-37.432-38.53-80.917-18.651-96.936 19.878-16.016 60.59 1.403 90.754 38.835 30.163 37.432 38.53 80.917 18.651 96.936-5.015 4.041-11.357 5.954-18.52 5.954zm-72.215-145.756c-6.749 0-12.708 1.795-17.415 5.589-19.02 15.326-10.517 57.55 18.954 94.123 29.47 36.573 68.919 53.859 87.941 38.532 19.02-15.326 10.517-57.55-18.954-94.123-22.177-27.521-50.005-44.121-70.526-44.121z" fill="#2866C4"/><path d="M633.642 498.469c-21.23 0-49.68-16.8-72.234-44.789-30.163-37.432-38.53-80.917-18.651-96.936 19.878-16.016 60.59 1.403 90.754 38.835 30.163 37.432 38.53 80.917 18.651 96.936-5.015 4.041-11.357 5.954-18.52 5.954zm-72.215-145.756c-6.749 0-12.708 1.795-17.415 5.589-19.02 15.326-10.517 57.55 18.954 94.123 29.47 36.573 68.919 53.859 87.941 38.532 19.02-15.326 10.517-57.55-18.954-94.123-22.177-27.521-50.005-44.121-70.526-44.121z" fill="#2866C4"/><ellipse cx="584.531" cy="433.31" fill="#fff" rx="37.526" ry="71.394" transform="matrix(.80010364 -.59986179 .59986179 .80010364 -143.081 437.257)"/><g fill="#2866C4"><path d="M613.377 495.741c-6.059 0-12.905-1.741-20.223-5.218-13.904-6.606-27.914-18.717-39.449-34.102s-19.233-32.229-21.676-47.426c-2.48-15.426.743-27.361 9.074-33.607 8.332-6.246 20.692-5.993 34.804.71 13.903 6.605 27.914 18.718 39.448 34.102 11.535 15.386 19.233 32.229 21.676 47.426 2.48 15.426-.743 27.361-9.074 33.607-4.011 3.007-8.957 4.508-14.58 4.508zm-57.684-122.863c-5.194 0-9.733 1.368-13.39 4.11-7.708 5.779-10.656 17.033-8.3 31.689 2.393 14.883 9.958 31.413 21.302 46.543 11.344 15.131 25.09 27.026 38.706 33.496 13.409 6.37 25.038 6.695 32.745.917 7.708-5.779 10.656-17.033 8.3-31.689-2.393-14.883-9.958-31.413-21.302-46.543-11.344-15.131-25.09-27.026-38.706-33.496-7.046-3.348-13.603-5.026-19.355-5.026zm-42.686-6.404a1 1 0 0 1-.952-.691c-9.609-29.595-9.083-61.165 1.523-91.295 9.465-26.89 26.76-50.721 47.451-65.384 14.822-10.503 33.691-17.86 53.132-20.713 28.104-4.128 57.551 3.718 80.785 21.521l.002.002.017.013a1 1 0 0 1-.921 1.742c-46.934-15.313-88.548-2.02-109.924 14.016-14.166 10.627-59.065 50.901-42.091 122.955a.998.998 0 0 1-.464 1.09l-28.05 16.605a.993.993 0 0 1-.509.14zm115.988-177.161c-4.863 0-9.721.348-14.543 1.056-19.134 2.809-37.696 10.042-52.266 20.367-38.526 27.302-68.472 90.14-48.609 153.239l26.34-15.592c-6.26-27.139-4.55-52.634 5.084-75.788 10.03-24.106 26.157-39.685 37.92-48.509 20.883-15.666 60.708-28.772 106.014-16.057-17.856-12.191-38.908-18.715-59.94-18.715z"/><path d="M604.337 499.744c-6.059 0-12.905-1.742-20.224-5.219-13.904-6.605-27.913-18.716-39.448-34.102-23.945-31.939-29.599-68.291-12.602-81.034 8.332-6.247 20.692-5.994 34.803.71 13.904 6.605 27.914 18.716 39.449 34.102 23.945 31.939 29.599 68.291 12.602 81.034-4.011 3.007-8.957 4.508-14.58 4.508zm-57.684-122.863c-5.194 0-9.733 1.368-13.39 4.11-16.115 12.082-10.282 47.177 13.002 78.233 11.344 15.131 25.09 27.026 38.706 33.496 13.408 6.37 25.038 6.696 32.745.916 16.115-12.082 10.282-47.177-13.002-78.233-11.344-15.131-25.09-27.026-38.706-33.496-7.046-3.348-13.602-5.026-19.355-5.026zm290.506 54.437a1 1 0 0 1-.787-1.616c4.153-5.314 10.21-17.555 6.567-29.72-3.346-11.178-13.897-19.836-31.36-25.734a1 1 0 0 1 .641-1.894c18.112 6.117 29.093 15.22 32.636 27.055 3.877 12.947-2.518 25.908-6.907 31.525a.998.998 0 0 1-.789.384z"/><rect height="46.155" rx="16.937" transform="matrix(.6655691 .74633623 -.74633623 .6655691 604.486 -465.416)" width="33.875" x="804.635" y="418.723"/><path d="M722.494 692.352c-30.598 0-67.741-11.787-98.303-32.287-31.5-21.13-50.417-47.345-53.265-73.815-.866-8.044-.687-20.415 1.112-27.189a1 1 0 0 1 1.933.513c-1.738 6.551-1.902 18.599-1.056 26.463 2.784 25.873 21.39 51.573 52.39 72.368 39.302 26.364 89.524 38.182 122.125 28.738 24.636-7.135 41.14-23.117 46.472-45.004 6.761-27.754-5.969-60.255-34.053-86.938a1 1 0 0 1 1.377-1.45c28.61 27.184 41.552 60.403 34.618 88.862-5.508 22.612-22.505 39.108-47.857 46.452-7.664 2.219-16.284 3.287-25.493 3.288z"/></g><path d="M583.522 224.885c19.372-14.533 61.61-30.227 110.835-14.167l-.018-.013c-22.784-17.458-51.632-25.494-80.031-21.325-20.609 3.025-38.954 10.799-52.698 20.54-40.333 28.582-69.032 92.634-48.602 155.555l6.281 15.895c-8.398 26.372 2.941 53.712 24.272 75.85l83.798 33.213c16.561-12.417 10.863-47.995-12.715-79.514 0 0 0-.002-.002-.002a158.28 158.28 0 0 0-2.987-4.16c-.066-.09-.132-.181-.199-.27a144.986 144.986 0 0 0-2.944-3.81c-.132-.165-.263-.332-.395-.496a139.258 139.258 0 0 0-3.496-4.166 126.407 126.407 0 0 0-6.468-6.872c-.328-.323-.658-.641-.99-.96-.916-.88-1.841-1.745-2.783-2.591-.393-.354-.79-.7-1.188-1.047-.905-.79-1.817-1.568-2.745-2.326-.46-.376-.928-.741-1.394-1.109a98.222 98.222 0 0 0-2.705-2.071c-.529-.389-1.067-.763-1.603-1.141a98.847 98.847 0 0 0-2.664-1.83c-.598-.393-1.209-.766-1.816-1.146a94.345 94.345 0 0 0-2.62-1.598c-.672-.39-1.36-.756-2.042-1.129-.851-.465-1.699-.936-2.566-1.374-.751-.38-1.52-.729-2.284-1.089-.831-.391-1.655-.792-2.501-1.158-.837-.363-1.697-.689-2.55-1.027-.803-.318-1.596-.651-2.412-.946-.948-.343-1.922-.643-2.889-.956-.751-.242-1.489-.506-2.251-.729-1.131-.331-2.291-.611-3.446-.899-.628-.156-1.241-.338-1.877-.482a89.325 89.325 0 0 0-5.507-1.063l-6.261-15.603c-13.974-59.319 12.799-101.729 42.464-123.984z" fill="#fff"/><path d="M627.358 491.433c-.125 0-.25-.023-.369-.07l-83.798-33.213a1.02 1.02 0 0 1-.352-.236c-23.629-24.523-32.36-51.679-24.612-76.506l-6.15-15.565c-9.63-29.655-9.104-61.224 1.502-91.354 9.465-26.89 26.761-50.721 47.452-65.384 14.822-10.503 33.691-17.86 53.131-20.713 28.107-4.128 57.552 3.719 80.785 21.521.387.296.513.835.286 1.267a.995.995 0 0 1-1.186.491c-46.934-15.312-88.549-2.02-109.925 14.016l-.6-.8.6.8c-14.16 10.624-59.031 50.877-42.108 122.882l6.022 15.009c1.649.274 3.331.604 5.009.983.394.089.778.192 1.164.295.244.065.488.131.735.192l.442.11c1.021.254 2.043.507 3.043.801.517.151 1.025.32 1.532.49l1.396.455c.762.244 1.524.488 2.271.758.589.213 1.167.446 1.745.679l1.324.526c.655.257 1.309.514 1.95.792a62.1 62.1 0 0 1 1.958.9l1.131.532c.587.273 1.173.547 1.749.839.758.383 1.501.79 2.245 1.197l.857.468c.522.283 1.044.567 1.558.865.891.517 1.764 1.063 2.637 1.608l.479.298c.459.286.917.571 1.368.868.91.598 1.803 1.221 2.691 1.849l.364.256c.42.296.841.592 1.256.897.923.679 1.831 1.381 2.731 2.092l.299.236c.371.292.742.584 1.108.883.936.765 1.857 1.55 2.77 2.347l.139.122c.355.31.709.62 1.061.936.95.854 1.883 1.726 2.807 2.614.334.322.667.643.998.969a120.683 120.683 0 0 1 3.641 3.741c.979 1.048 1.947 2.12 2.878 3.186l.602.695c1.018 1.182 2 2.36 2.919 3.501l.397.498a148.722 148.722 0 0 1 2.965 3.837l.202.274a159.08 159.08 0 0 1 3.005 4.184c23.843 31.872 29.457 68.169 12.496 80.886a1 1 0 0 1-.6.2zM544.13 456.37l83.067 32.924c15.533-12.363 9.633-47.045-13.356-77.775a158.685 158.685 0 0 0-2.991-4.165l-.196-.267a147.978 147.978 0 0 0-2.925-3.786l-.393-.494a139.052 139.052 0 0 0-2.877-3.45l-.593-.686a128.47 128.47 0 0 0-3.621-3.973 109.714 109.714 0 0 0-3.775-3.796 113.068 113.068 0 0 0-2.758-2.568c-.344-.31-.692-.613-1.04-.917l-.138-.121c-.896-.783-1.8-1.553-2.72-2.304-.356-.292-.718-.576-1.08-.861l-.301-.237a98.275 98.275 0 0 0-2.678-2.051c-.403-.297-.812-.584-1.221-.872l-.367-.258a96.873 96.873 0 0 0-2.637-1.812 62.993 62.993 0 0 0-1.326-.84l-.471-.293a94.094 94.094 0 0 0-2.592-1.582 61.5 61.5 0 0 0-1.508-.837l-.863-.471c-.724-.396-1.448-.793-2.186-1.167-.557-.282-1.125-.546-1.692-.811l-1.143-.537a60.282 60.282 0 0 0-1.896-.873 57.606 57.606 0 0 0-1.886-.765l-1.34-.533a49.869 49.869 0 0 0-1.679-.653 59 59 0 0 0-2.199-.733l-1.421-.464a38.218 38.218 0 0 0-1.46-.467c-.974-.286-1.969-.532-2.963-.779l-.443-.11a39.51 39.51 0 0 1-.77-.201 26.936 26.936 0 0 0-1.086-.276 87.654 87.654 0 0 0-5.444-1.051 1 1 0 0 1-.771-.615l-6.261-15.603a.946.946 0 0 1-.045-.143c-6.457-27.407-4.802-53.146 4.917-76.504 10.03-24.106 26.157-39.685 37.92-48.509 20.883-15.666 60.702-28.774 106.009-16.058-22.007-15.016-48.816-21.423-74.479-17.658-19.134 2.809-37.695 10.042-52.265 20.367-38.768 27.473-68.846 90.934-48.229 154.431l6.26 15.836a.998.998 0 0 1 .022.671c-7.686 24.136.797 50.656 23.89 74.697z" fill="#2866C4"/><path d="M621.018 285.656a1 1 0 0 1-.949-1.314c.193-.585 19.989-58.758 73.992-74.587a1 1 0 1 1 .563 1.919c-52.98 15.53-72.465 72.721-72.656 73.296a1 1 0 0 1-.949.686z" fill="#fff"/><ellipse cx="575.49" cy="437.313" fill="#fff" rx="37.526" ry="71.394" transform="matrix(.80010364 -.59986179 .59986179 .80010364 -147.289 432.634)"/><path d="M604.337 499.744c-6.059 0-12.905-1.742-20.224-5.219-13.904-6.605-27.913-18.716-39.448-34.102-23.945-31.939-29.599-68.291-12.602-81.034 8.332-6.247 20.692-5.994 34.803.71 13.904 6.605 27.914 18.716 39.449 34.102 23.945 31.939 29.599 68.291 12.602 81.034-4.011 3.007-8.957 4.508-14.58 4.508zm-57.684-122.863c-5.194 0-9.733 1.368-13.39 4.11-16.115 12.082-10.282 47.177 13.002 78.233 11.344 15.131 25.09 27.026 38.706 33.496 13.408 6.37 25.038 6.696 32.745.916 16.115-12.082 10.282-47.177-13.002-78.233-11.344-15.131-25.09-27.026-38.706-33.496-7.046-3.348-13.602-5.026-19.355-5.026z" fill="#2866C4"/></svg></g><g transform="translate(521.0 1312.0) rotate(0.0 642.5 52.0) scale(0.8467333554296694 0.8467883110644292)"><svg width="1517.597" height="122.817" viewBox="0 0 1517.597 122.817"><path d="M169.756 56.576H66.927l13.11-46.192A12.909 12.909 0 0 1 92.455 1h51.774a12.909 12.909 0 0 1 12.418 9.384z" fill="#fff"/><path d="M171.079 57.576H65.603L79.074 10.11C80.764 4.157 86.266 0 92.455 0h51.773c6.189 0 11.691 4.158 13.38 10.11zm-102.829-2h100.183l-12.749-44.919C154.238 5.56 149.527 2 144.228 2H92.455c-5.299 0-10.009 3.56-11.456 8.657z" fill="#0f3336"/><path d="M400.486 1H220.583a12.909 12.909 0 0 0-12.418 9.384l-13.11 46.192h230.959l-13.11-46.192A12.909 12.909 0 0 0 400.486 1z" fill="#fff"/><path d="M427.337 57.576H193.732l13.471-47.466C208.893 4.157 214.395 0 220.583 0h179.903c6.188 0 11.69 4.157 13.38 10.11zm-230.958-2h228.312l-12.749-44.919C410.495 5.56 405.785 2 400.486 2H220.583c-5.299 0-10.009 3.56-11.456 8.657z" fill="#0f3336"/><path d="M554.144 56.576h-102.83l13.11-46.192A12.909 12.909 0 0 1 476.842 1h51.774a12.909 12.909 0 0 1 12.418 9.384z" fill="#fff"/><path d="M555.467 57.576H449.991l13.471-47.466C465.151 4.157 470.653 0 476.842 0h51.774c6.188 0 11.69 4.158 13.38 10.11zm-102.83-2H552.82l-12.749-44.919C538.625 5.56 533.914 2 528.616 2h-51.774c-5.299 0-10.009 3.56-11.456 8.657z" fill="#0f3336"/><path d="M682.273 56.576h-102.83l13.11-46.192A12.909 12.909 0 0 1 604.971 1h51.774a12.909 12.909 0 0 1 12.418 9.384z" fill="#fff"/><path d="M683.596 57.576H578.12l13.471-47.466C593.281 4.157 598.783 0 604.971 0h51.773c6.188 0 11.69 4.157 13.38 10.11zm-102.83-2h100.183L668.2 10.657C666.754 5.56 662.043 2 656.745 2h-51.773c-5.299 0-10.009 3.56-11.456 8.657z" fill="#0f3336"/><path d="M938.531 56.576h-102.83l13.11-46.192A12.909 12.909 0 0 1 861.229 1h51.773a12.909 12.909 0 0 1 12.418 9.384z" fill="#fff"/><path d="M939.854 57.576H834.378l13.471-47.466C849.539 4.157 855.041 0 861.229 0h51.773c6.188 0 11.691 4.158 13.38 10.11zm-102.829-2h100.183l-12.749-44.919C923.012 5.56 918.301 2 913.003 2H861.23c-5.298 0-10.009 3.56-11.456 8.657z" fill="#0f3336"/><path d="M810.402 69.195h-102.83l13.11-46.192a12.909 12.909 0 0 1 12.418-9.384h51.774a12.909 12.909 0 0 1 12.418 9.384z" fill="#fff"/><path d="M811.725 70.196H706.249L719.72 22.73c1.69-5.953 7.192-10.111 13.38-10.111h51.773c6.188 0 11.69 4.158 13.38 10.111zm-102.83-2h100.183L796.33 23.277c-1.447-5.098-6.158-8.658-11.456-8.658H733.1c-5.298 0-10.009 3.561-11.456 8.658z" fill="#0f3336"/><path d="M1066.66 56.576H963.83l13.11-46.192A12.909 12.909 0 0 1 989.358 1h51.774a12.909 12.909 0 0 1 12.418 9.384z" fill="#fff"/><path d="M1067.983 57.576H962.507l13.472-47.466C977.668 4.158 983.17 0 989.358 0h51.774c6.188 0 11.69 4.157 13.38 10.11zm-102.83-2h100.183l-12.749-44.919C1051.141 5.56 1046.43 2 1041.132 2h-51.774c-5.298 0-10.009 3.56-11.456 8.657z" fill="#0f3336"/><path d="M1194.789 56.576h-102.83l13.11-46.192A12.909 12.909 0 0 1 1117.487 1h51.774a12.909 12.909 0 0 1 12.418 9.384z" fill="#fff"/><path d="M1196.112 57.576h-105.477l13.472-47.466c1.689-5.952 7.191-10.11 13.38-10.11h51.773c6.188 0 11.691 4.158 13.38 10.11zm-102.83-2h100.184l-12.749-44.919C1179.271 5.56 1174.56 2 1169.261 2h-51.773c-5.299 0-10.01 3.56-11.456 8.657z" fill="#0f3336"/><path d="M1322.918 56.576h-102.83l13.11-46.192A12.909 12.909 0 0 1 1245.616 1h51.773a12.909 12.909 0 0 1 12.418 9.384z" fill="#fff"/><path d="M1324.241 57.576h-105.476l13.471-47.466c1.69-5.953 7.192-10.11 13.38-10.11h51.773c6.188 0 11.691 4.158 13.38 10.11zm-102.829-2h100.183l-12.749-44.919C1307.4 5.56 1302.689 2 1297.39 2h-51.773c-5.298 0-10.009 3.56-11.456 8.657z" fill="#0f3336"/><path d="M1451.047 56.576h-102.83l13.11-46.192A12.909 12.909 0 0 1 1373.745 1h51.774a12.909 12.909 0 0 1 12.418 9.384z" fill="#fff"/><path d="M1452.37 57.576h-105.476l13.472-47.466c1.689-5.952 7.191-10.11 13.38-10.11h51.773c6.188 0 11.69 4.157 13.38 10.11zm-102.829-2h100.183l-12.749-44.919C1435.528 5.56 1430.818 2 1425.519 2h-51.773c-5.299 0-10.01 3.56-11.456 8.657z" fill="#0f3336"/><path d="M1511.494 121.817H6.103c-3.759 0-6.225-3.931-4.588-7.315l25.38-52.489a9.63 9.63 0 0 1 8.67-5.438h1446.467a9.63 9.63 0 0 1 8.67 5.438l25.38 52.489c1.637 3.384-.829 7.315-4.588 7.315z" fill="#fff"/><path d="M1511.494 122.817H6.103a6.063 6.063 0 0 1-5.165-2.857 6.065 6.065 0 0 1-.324-5.894l25.38-52.488a10.691 10.691 0 0 1 9.57-6.003h1446.468a10.69 10.69 0 0 1 9.57 6.003l25.38 52.488a6.066 6.066 0 0 1-.324 5.894 6.064 6.064 0 0 1-5.164 2.857zM35.565 57.574a8.677 8.677 0 0 0-7.769 4.874l-25.38 52.488c-.618 1.277-.536 2.758.218 3.96s2.052 1.92 3.471 1.92h1505.391a4.077 4.077 0 0 0 3.471-1.92 4.073 4.073 0 0 0 .217-3.96l-25.38-52.488a8.678 8.678 0 0 0-7.769-4.874z" fill="#0f3336"/></svg></g><g transform="translate(47.0 656.0) rotate(0.0 181.0 205.0) scale(0.851748672966156 0.8520224102674935)"><svg width="425.008" height="481.208" viewBox="0 0 425.008 481.208"><path d="M423.932 419.476C274.889 436.632 171.585 450.719 0 481.208L13.004 97.353C166.633 52.638 268.609 27.129 425.008 0z" fill="#9de9ff"/><path d="M357.987 218.496c-.61 80.733-69.725 157.72-152.299 170.74-80.376 12.673-142.124-40.543-139.858-117.75 2.24-76.326 66.407-150.322 145.183-166.436 80.884-16.545 147.577 33.68 146.975 113.446z" fill="#2866C4"/><g fill="#fff"><path d="M248.653 182.595c-.332 21.017-18.279 41.361-39.944 45.354-21.511 3.964-38.471-9.728-38.021-30.499.448-20.706 18.043-40.834 39.437-45.044 21.547-4.239 38.859 9.238 38.528 30.188zm-42.529 183.333c36.003-5.815 69-26.204 92.433-54.124-.203-48.587-40.564-80.155-90.086-71.132-48.723 8.877-88.687 53.946-90.626 101.477 21.368 19.863 52.7 29.527 88.279 23.78z"/></g></svg></g><g transform="translate(447.0 491.0) rotate(0.0 120.0 122.5) scale(0.8492448797610792 0.8479181014940663)"><svg width="282.604" height="288.943" viewBox="0 0 282.604 288.943"><g fill="#172635"><path d="M185.871 128.067c-.027 7.299 6.307 12.388 14.159 11.368 7.864-1.022 14.274-7.785 14.305-15.105.031-7.323-6.331-12.413-14.2-11.37-7.856 1.042-14.237 7.806-14.264 15.107zm-60.599 7.957c-.018 7.253 6.246 12.316 14.002 11.308 7.768-1.01 14.093-7.725 14.115-15 .022-7.277-6.27-12.34-14.042-11.309s-14.057 7.746-14.075 15.001zm-59.864 7.86c-.009 7.208 6.186 12.244 13.849 11.248 7.674-.997 13.915-7.666 13.929-14.895.013-7.231-6.209-12.268-13.888-11.25-7.666 1.017-13.88 7.687-13.889 14.897z"/><path d="m22.547 288.943 15.402-51.48C13.472 216.151 0 185.947 0 152.341c0-34.917 14.455-69.795 40.701-98.209 26.294-28.465 61.393-47.124 98.831-52.537 39.757-5.747 78.096 4.482 105.187 28.071 24.62 21.438 38.074 51.921 37.884 85.838-.414 73.732-64.804 141.281-143.536 150.577-15.837 1.87-31.358 1.259-46.138-1.816zM161.112 2.028c-7.012 0-14.127.51-21.293 1.546C63.825 14.563 2 81.299 2 152.341c0 33.239 13.405 63.082 37.745 84.031l.491.423-14.648 48.962 67.205-23.564.273.058c14.649 3.079 30.046 3.7 45.766 1.844 77.765-9.182 141.362-75.844 141.771-148.602.187-33.325-13.023-63.27-37.197-84.318-21.777-18.962-50.972-29.147-82.294-29.147z"/></g></svg></g><g transform="translate(1505.0 978.0) rotate(0.0 178.0 111.5) scale(0.8483381151642821 0.8450458712119776)"><svg width="419.644" height="263.891" viewBox="0 0 419.644 263.891"><linearGradient id="a" gradientUnits="userSpaceOnUse" x1=".503" x2="419.207" y1="131.945" y2="131.945"><stop offset="0" stop-color="#ae73fb"/><stop offset="1" stop-color="#c7aeff" stop-opacity=".9"/></linearGradient><path d="M419.206 263.891C311.848 255.744 167.009 249.316.502 244.606V0c163.231 8.832 307.327 20.8 418.704 35.901V263.89z" fill="url(#a)" opacity=".7"/><path d="M226.438 157.895a39.566 39.566 0 0 1-19.913-5.379L0 32.411l1.006-1.729 206.525 120.105a37.556 37.556 0 0 0 35.366 1.31l175.872-85.548.875 1.799-175.872 85.548a39.613 39.613 0 0 1-17.334 4z" fill="#0f3336"/></svg></g><g transform="translate(1596.0 667.0) rotate(0.0 324.0 165.0) scale(0.8447322211894821 0.8447848614552828)"><svg width="767.107" height="390.632" viewBox="0 0 767.107 390.632"><path d="M0 283.065c279.767 14.837 588.053 66.24 767.107 107.567l-.228-249.697C506.662 64.435 262.242 20.898 0 0z" fill="#e6e6e6"/><path d="M506.849 208.825c.449 52.86-42.429 89.237-97.189 81.52-56.394-7.947-104.59-59.489-106.122-115.43-1.548-56.529 45.108-93.538 102.62-82.432 55.814 10.778 100.237 62.955 100.691 116.341z" fill="#2866C4"/><path d="M387.892 232.966c5.844-5.809 9.338-12.098 3.24-19.718l-3.682-4.58c-2.695-3.354-15.146-10.825 9.541-27.755 24.407-16.783 28.443-3.641 31.044-.274l3.618 4.602c5.963 7.589 13.283 6.339 20.77 2.868l4.515-2.078c7.415-3.476 12.254-7.805 6.416-15.406l-3.205-4.107c-2.177-3.307-9.306-12.739-22.733-17.134-16.243-5.329-34.852-1.052-55.257 12.862-20.581 13.984-30.782 29.446-30.228 45.776.472 13.522 8.191 22.823 10.984 25.783l3.382 4.136c6.158 7.56 12.193 4.363 18.055-1.463l3.539-3.51z" fill="#fff"/><g fill="#172635"><path d="M168.826 244.476c-4.871 0-9.836-.359-14.859-1.09-54.186-7.873-100.315-54.763-102.831-104.524-1.145-22.653 6.975-42.765 22.864-56.63 18.192-15.876 44.801-21.933 72.999-16.614 25.669 4.84 49.996 18.453 68.499 38.332 18.438 19.809 29.015 43.559 29.78 66.875.711 21.614-7.252 40.988-22.42 54.554-13.9 12.431-33.061 19.098-54.032 19.098zM127.258 65.733c-20.146 0-38.439 6.224-51.943 18.007-15.417 13.453-23.295 32.993-22.181 55.021 2.47 48.856 47.832 94.903 101.12 102.647 26.062 3.788 50.585-2.597 67.271-17.521 14.72-13.163 22.446-31.984 21.756-52.996-1.552-47.208-44.909-93.552-96.652-103.309-6.576-1.239-13.066-1.85-19.37-1.85z"/><path d="m99.393 128.649 1.693 36.689c.217 4.703 4.566 9.146 9.752 9.977l61.282 9.82-2.088-52.726-61.619-10.677c-5.215-.904-9.237 2.178-9.019 6.917zm94.503 11.63-15.639 6.478 1.038 26.692 16.282 11.741 4.788.772-1.659-44.854zm450.863 174.874c-3.475 0-7.004-.257-10.571-.775-42.154-6.125-76.594-46.503-76.771-90.008-.088-21.538 8.11-40.265 23.083-52.73 14.689-12.229 34.037-16.84 54.482-12.983 20.001 3.771 38.649 15.284 52.511 32.418 13.802 17.062 21.291 37.724 21.09 58.181-.204 20.633-8.203 38.752-22.525 51.02-11.383 9.751-25.768 14.879-41.298 14.879zM621.082 159.33c-14.74 0-28.363 4.74-39.303 13.847-14.507 12.077-22.448 30.255-22.363 51.186.174 42.555 33.846 82.048 75.059 88.037 18.938 2.751 36.797-2.093 50.281-13.644 13.877-11.887 21.629-29.474 21.826-49.521l1 .01-1-.01c.407-41.302-31.879-81.054-71.972-88.614-4.58-.863-9.106-1.291-13.528-1.291z"/><path d="M634.686 195.913c-7.329-1.307-13.364 3.839-13.378 11.426l-.043 24.078c-.013 7.542 5.971 14.693 13.265 15.889 7.265 1.191 13.217-3.958 13.249-11.441l.102-23.889c.032-7.527-5.896-14.761-13.195-16.063zm-30.194 32.69c-.003 15.861 11.798 30.88 26.68 34.985l-.038 13.804 6.601 1.025.046-13.777c14.714.624 26.28-10.447 26.37-26.029l-6.531-1.096c-.068 13.074-10.417 22.055-23.121 20.01-12.795-2.06-23.291-14.538-23.279-27.793z"/></g></svg></g><g transform="translate(471.0 861.0) rotate(0.0 119.0 131.0) scale(0.8448014539104013 0.8444258226705773)"><svg width="281.723" height="310.27" viewBox="0 0 281.723 310.27"><g><path d="M280.723 298.214C182.442 300.941 88.667 304.635 1 309.27V28.537C89.471 17.96 183.117 8.751 280.722 1l.001 297.214z" style="fill:#fff;stroke:#172635;stroke-width:2;stroke-linecap:round;stroke-linejoin:round;stroke-miterlimit:10"/><path d="M280.723 298.214C182.442 300.941 88.667 304.635 1 309.27V28.537C89.471 17.96 183.117 8.751 280.722 1l.001 297.214z" style="fill:#fff;stroke:#172635;stroke-width:2;stroke-linecap:round;stroke-linejoin:round;stroke-miterlimit:10"/><path d="M57.308 73.452c0 6.987-5.698 12.8-12.716 12.983-7.007.183-12.678-5.316-12.678-12.282s5.672-12.779 12.678-12.982c7.018-.204 12.716 5.294 12.716 12.281z" style="fill:#2866c4"/><path d="M57.308 126.116c0 6.987-5.698 12.765-12.716 12.905-7.007.14-12.678-5.394-12.678-12.36 0-6.966 5.672-12.744 12.678-12.904 7.018-.161 12.716 5.372 12.716 12.359z" style="opacity:.9;fill:#fff"/><path d="M57.308 126.116c0 6.987-5.698 12.765-12.716 12.905-7.007.14-12.678-5.394-12.678-12.36 0-6.966 5.672-12.744 12.678-12.904 7.018-.161 12.716 5.372 12.716 12.359z" style="fill:#fff;stroke:#172635;stroke-width:2;stroke-linecap:round;stroke-linejoin:round;stroke-miterlimit:10"/><path d="M57.308 179.607c0 6.987-5.698 12.729-12.716 12.825-7.007.096-12.678-5.473-12.678-12.44 0-6.966 5.672-12.708 12.678-12.825 7.018-.116 12.716 5.453 12.716 12.44z" style="fill:#e6e6e6"/><path d="M57.308 231.674c0 6.987-5.698 12.694-12.716 12.748-7.007.053-12.678-5.551-12.678-12.517s5.672-12.673 12.678-12.747c7.018-.075 12.716 5.529 12.716 12.516z" style="fill:#ca1c2b"/><path d="M73.182 73.014c51.974-4.98 105.595-9.54 160.618-13.663M73.182 125.776c51.923-4.36 105.549-8.329 160.618-11.893M73.182 178.616c50.473-3.652 102.605-6.96 156.144-9.912M73.182 231.53c50.472-3.078 102.646-5.833 156.262-8.26" style="fill:none;stroke:#0f3336;stroke-width:2;stroke-miterlimit:10"/></g></svg></g><g transform="translate(1506.0 978.0) rotate(0.0 177.5 111.5) scale(0.8459551429306745 0.8450458712119776)"><svg width="419.644" height="263.891" viewBox="0 0 419.644 263.891"><path d="M419.206 263.891C311.848 255.744 167.009 249.316.502 244.606V0c163.231 8.832 307.327 20.8 418.704 35.901V263.89z" fill="#9de9ff"/><path d="M226.438 157.895a39.578 39.578 0 0 1-19.913-5.378L0 32.411l1.006-1.729 206.525 120.105a37.562 37.562 0 0 0 35.366 1.309l175.872-85.548.875 1.799-175.872 85.548a39.612 39.612 0 0 1-17.334 3.999z" fill="#0f3336"/></svg></g></svg>