<svg xmlns="http://www.w3.org/2000/svg"  viewBox="0 0 80 80" width="16px" height="16px"><path fill="#c74343" d="M70 2H72V46H70z"/><path fill="#f78f8f" d="M64.5 8.5H77.5V39.5H64.5z"/><path fill="#c74343" d="M77 9v30H65V9H77M78 8H64v32h14V8L78 8zM28 12H30V60H28z"/><path fill="#f78f8f" d="M22.5 18.5H35.5V53.5H22.5z"/><path fill="#c74343" d="M35,19v34H23V19H35 M36,18H22v36h14V18L36,18z"/><path fill="#5e9c76" d="M50 34H52V70H50z"/><path fill="#bae0bd" d="M44.5 40.5H57.5V63.5H44.5z"/><path fill="#5e9c76" d="M57 41v22H45V41H57M58 40H44v24h14V40L58 40zM8 38H10V78H8z"/><g><path fill="#bae0bd" d="M2.5 44.5H15.5V71.5H2.5z"/><path fill="#5e9c76" d="M15,45v26H3V45H15 M16,44H2v28h14V44L16,44z"/></g></svg>